<svg xmlns="http://www.w3.org/2000/svg" xmlns:xlink="http://www.w3.org/1999/xlink" contentStyleType="text/css" data-diagram-type="ACTIVITY" height="1988px" preserveAspectRatio="none" style="width:2237px;height:1988px;background:#FFFFFF;" version="1.1" viewBox="0 0 2237 1988" width="2237px" zoomAndPan="magnify"><title>Activity Diagram - T&#237;nh L&#432;&#417;ng T&#7921; &#272;&#7897;ng</title><defs/><g><g class="title" data-source-line="1"><text fill="#000000" font-family="sans-serif" font-size="14" font-weight="bold" lengthAdjust="spacing" textLength="305.8809" x="964.3723" y="32.9951">Activity Diagram - T&#237;nh L&#432;&#417;ng T&#7921; &#272;&#7897;ng</text></g><rect fill="none" height="20.9531" style="stroke:none;stroke-width:1;" width="2204.6255" x="15" y="50.042"/><ellipse cx="106.7148" cy="85.9951" fill="#222222" rx="10" ry="10" style="stroke:#222222;stroke-width:1;"/><rect fill="#F1F1F1" height="33.9688" rx="12.5" ry="12.5" style="stroke:#181818;stroke-width:0.5;" width="171.4297" x="21" y="115.9951"/><text fill="#000000" font-family="sans-serif" font-size="12" lengthAdjust="spacing" textLength="151.4297" x="31" y="137.1338">Admin ch&#7885;n SalaryConfig</text><rect fill="#F1F1F1" height="33.9688" rx="12.5" ry="12.5" style="stroke:#181818;stroke-width:0.5;" width="150.3711" x="31.5293" y="169.9639"/><text fill="#000000" font-family="sans-serif" font-size="12" lengthAdjust="spacing" textLength="130.3711" x="41.5293" y="191.1025">Click n&#250;t "T&#237;nh l&#432;&#417;ng"</text><line style="stroke:#000000;stroke-width:1.5;" x1="15" x2="15" y1="50.042" y2="1976.2075"/><rect fill="#F1F1F1" height="33.9688" rx="12.5" ry="12.5" style="stroke:#181818;stroke-width:0.5;" width="151.4551" x="202.4297" y="272.335"/><text fill="#000000" font-family="sans-serif" font-size="12" lengthAdjust="spacing" textLength="131.4551" x="212.4297" y="293.4736">Return 403 Forbidden</text><ellipse cx="278.1572" cy="346.2881" fill="none" rx="10" ry="10" style="stroke:#222222;stroke-width:1.5;"/><line style="stroke:#222222;stroke-width:2.5;" x1="271.97" x2="284.3444" y1="340.1009" y2="352.4753"/><line style="stroke:#222222;stroke-width:2.5;" x1="284.3444" x2="271.97" y1="340.1009" y2="352.4753"/><polygon fill="#F1F1F1" points="236.6816,223.9326,319.6328,223.9326,331.6328,235.9326,319.6328,247.9326,236.6816,247.9326,224.6816,235.9326,236.6816,223.9326" style="stroke:#181818;stroke-width:0.5;"/><text fill="#000000" font-family="sans-serif" font-size="11" lengthAdjust="spacing" textLength="14.9585" x="282.1572" y="258.1431">No</text><text fill="#000000" font-family="sans-serif" font-size="11" lengthAdjust="spacing" textLength="82.9512" x="236.6816" y="239.7407">User l&#224; Admin?</text><text fill="#000000" font-family="sans-serif" font-size="11" lengthAdjust="spacing" textLength="19.2178" x="331.6328" y="233.3384">Yes</text><line style="stroke:#000000;stroke-width:1.5;" x1="196.4297" x2="196.4297" y1="50.042" y2="1976.2075"/><rect fill="#F1F1F1" height="33.9688" rx="12.5" ry="12.5" style="stroke:#181818;stroke-width:0.5;" width="213.9336" x="411.4272" y="398.2881"/><text fill="#000000" font-family="sans-serif" font-size="12" lengthAdjust="spacing" textLength="193.9336" x="421.4272" y="419.4268">Ki&#7875;m tra tr&#7841;ng th&#225;i SalaryConfig</text><polygon fill="#F1F1F1" points="473.1265,500.6592,563.6616,500.6592,575.6616,512.6592,563.6616,524.6592,473.1265,524.6592,461.1265,512.6592,473.1265,500.6592" style="stroke:#181818;stroke-width:0.5;"/><text fill="#000000" font-family="sans-serif" font-size="11" lengthAdjust="spacing" textLength="90.5352" x="473.1265" y="516.4673">Status = active?</text><text fill="#000000" font-family="sans-serif" font-size="11" lengthAdjust="spacing" textLength="19.2178" x="441.9087" y="510.0649">Yes</text><text fill="#000000" font-family="sans-serif" font-size="11" lengthAdjust="spacing" textLength="61.2358" x="575.6616" y="510.0649">No - closed</text><rect fill="#F1F1F1" height="33.9688" rx="12.5" ry="12.5" style="stroke:#181818;stroke-width:0.5;" width="122.2637" x="374.8848" y="534.6592"/><text fill="#000000" font-family="sans-serif" font-size="12" lengthAdjust="spacing" textLength="102.2637" x="384.8848" y="555.7979">Cho ph&#233;p t&#237;nh l&#7841;i</text><rect fill="#F1F1F1" height="33.9688" rx="12.5" ry="12.5" style="stroke:#181818;stroke-width:0.5;" width="167.2461" x="517.1484" y="534.6592"/><text fill="#000000" font-family="sans-serif" font-size="12" lengthAdjust="spacing" textLength="147.2461" x="527.1484" y="555.7979">Tr&#7843; v&#7873; l&#7895;i kh&#244;ng th&#7875; t&#237;nh</text><ellipse cx="600.7715" cy="598.6279" fill="none" rx="10" ry="10" style="stroke:#222222;stroke-width:1.5;"/><line style="stroke:#222222;stroke-width:2.5;" x1="594.5843" x2="606.9587" y1="592.4407" y2="604.8151"/><line style="stroke:#222222;stroke-width:2.5;" x1="606.9587" x2="594.5843" y1="592.4407" y2="604.8151"/><polygon fill="#F1F1F1" points="476.6284,452.2568,560.1597,452.2568,572.1597,464.2568,560.1597,476.2568,476.6284,476.2568,464.6284,464.2568,476.6284,452.2568" style="stroke:#181818;stroke-width:0.5;"/><text fill="#000000" font-family="sans-serif" font-size="11" lengthAdjust="spacing" textLength="14.9585" x="522.394" y="486.4673">No</text><text fill="#000000" font-family="sans-serif" font-size="11" lengthAdjust="spacing" textLength="83.5313" x="476.6284" y="468.0649">Status = draft?</text><text fill="#000000" font-family="sans-serif" font-size="11" lengthAdjust="spacing" textLength="19.2178" x="572.1597" y="461.6626">Yes</text><polygon fill="#F1F1F1" points="518.394,628.6279,530.394,640.6279,518.394,652.6279,506.394,640.6279,518.394,628.6279" style="stroke:#181818;stroke-width:0.5;"/><line style="stroke:#000000;stroke-width:1.5;" x1="368.8848" x2="368.8848" y1="50.042" y2="1976.2075"/><rect fill="#F1F1F1" height="33.9688" rx="12.5" ry="12.5" style="stroke:#181818;stroke-width:0.5;" width="245.4512" x="723.3945" y="672.6279"/><text fill="#000000" font-family="sans-serif" font-size="12" lengthAdjust="spacing" textLength="225.4512" x="733.3945" y="693.7666">Load t&#7845;t c&#7843; Classrooms c&#7911;a semester</text><rect fill="#F1F1F1" height="33.9688" rx="12.5" ry="12.5" style="stroke:#181818;stroke-width:0.5;" width="199.9824" x="746.1289" y="726.5967"/><text fill="#000000" font-family="sans-serif" font-size="12" lengthAdjust="spacing" textLength="179.9824" x="756.1289" y="747.7354">Filter classroom c&#243; teacher_id</text><rect fill="#F1F1F1" height="33.9688" rx="12.5" ry="12.5" style="stroke:#181818;stroke-width:0.5;" width="225.9277" x="733.1563" y="828.9678"/><text fill="#000000" font-family="sans-serif" font-size="12" lengthAdjust="spacing" textLength="205.9277" x="743.1563" y="850.1064">Tr&#7843; v&#7873; th&#244;ng b&#225;o kh&#244;ng c&#243; d&#7919; li&#7879;u</text><ellipse cx="846.1201" cy="902.9209" fill="none" rx="10" ry="10" style="stroke:#222222;stroke-width:1.5;"/><line style="stroke:#222222;stroke-width:2.5;" x1="839.9329" x2="852.3073" y1="896.7337" y2="909.1081"/><line style="stroke:#222222;stroke-width:2.5;" x1="852.3073" x2="839.9329" y1="896.7337" y2="909.1081"/><polygon fill="#F1F1F1" points="794.2756,780.5654,897.9646,780.5654,909.9646,792.5654,897.9646,804.5654,794.2756,804.5654,782.2756,792.5654,794.2756,780.5654" style="stroke:#181818;stroke-width:0.5;"/><text fill="#000000" font-family="sans-serif" font-size="11" lengthAdjust="spacing" textLength="14.9585" x="850.1201" y="814.7759">No</text><text fill="#000000" font-family="sans-serif" font-size="11" lengthAdjust="spacing" textLength="103.689" x="794.2756" y="796.3735">C&#243; classroom n&#224;o?</text><text fill="#000000" font-family="sans-serif" font-size="11" lengthAdjust="spacing" textLength="19.2178" x="909.9646" y="789.9712">Yes</text><line style="stroke:#000000;stroke-width:1.5;" x1="717.3945" x2="717.3945" y1="50.042" y2="1976.2075"/><rect fill="#F1F1F1" height="33.9688" rx="12.5" ry="12.5" style="stroke:#181818;stroke-width:0.5;" width="299.041" x="989.8457" y="954.9209"/><text fill="#000000" font-family="sans-serif" font-size="12" lengthAdjust="spacing" textLength="279.041" x="999.8457" y="976.0596">Kh&#7903;i t&#7841;o arrays: results, errors, bulkInsertData</text><rect fill="#F1F1F1" height="33.9688" rx="12.5" ry="12.5" style="stroke:#181818;stroke-width:0.5;" width="195.5352" x="1041.5986" y="1057.292"/><text fill="#000000" font-family="sans-serif" font-size="12" lengthAdjust="spacing" textLength="175.5352" x="1051.5986" y="1078.4307">X&#243;a d&#7919; li&#7879;u TeacherSalary c&#361;</text><polygon fill="#F1F1F1" points="1097.0205,1008.8896,1181.7119,1008.8896,1193.7119,1020.8896,1181.7119,1032.8896,1097.0205,1032.8896,1085.0205,1020.8896,1097.0205,1008.8896" style="stroke:#181818;stroke-width:0.5;"/><text fill="#000000" font-family="sans-serif" font-size="11" lengthAdjust="spacing" textLength="19.2178" x="1143.3662" y="1043.1001">Yes</text><text fill="#000000" font-family="sans-serif" font-size="11" lengthAdjust="spacing" textLength="84.6914" x="1097.0205" y="1024.6978">T&#237;nh l&#7841;i = true?</text><text fill="#000000" font-family="sans-serif" font-size="11" lengthAdjust="spacing" textLength="14.9585" x="1193.7119" y="1018.2954">No</text><polygon fill="#F1F1F1" points="1139.3662,1111.2607,1151.3662,1123.2607,1139.3662,1135.2607,1127.3662,1123.2607,1139.3662,1111.2607" style="stroke:#181818;stroke-width:0.5;"/><polygon fill="#F1F1F1" points="1139.3662,1155.2607,1151.3662,1167.2607,1139.3662,1179.2607,1127.3662,1167.2607,1139.3662,1155.2607" style="stroke:#181818;stroke-width:0.5;"/><line style="stroke:#000000;stroke-width:1.5;" x1="983.8457" x2="983.8457" y1="50.042" y2="1976.2075"/><rect fill="#F1F1F1" height="75.875" rx="12.5" ry="12.5" style="stroke:#181818;stroke-width:0.5;" width="137.6563" x="1316.0635" y="1199.2607"/><text fill="#000000" font-family="sans-serif" font-size="12" lengthAdjust="spacing" textLength="83.332" x="1326.0635" y="1220.3994">L&#7845;y th&#244;ng tin:</text><text fill="#000000" font-family="sans-serif" font-size="12" lengthAdjust="spacing" textLength="117.6563" x="1326.0635" y="1234.3682">- Teacher &amp; Degree</text><text fill="#000000" font-family="sans-serif" font-size="12" lengthAdjust="spacing" textLength="116.584" x="1326.0635" y="1248.3369">- Course coefficient</text><text fill="#000000" font-family="sans-serif" font-size="12" lengthAdjust="spacing" textLength="99.3047" x="1326.0635" y="1262.3057">- Students count</text><path d="M1477.9033,1285.1357 L1477.9033,1339.1006 L1457.9033,1343.1006 L1477.9033,1347.1006 L1477.9033,1401.0654 A0,0 0 0 0 1477.9033,1401.0654 L1582.9463,1401.0654 A0,0 0 0 0 1582.9463,1401.0654 L1582.9463,1295.1357 L1572.9463,1285.1357 L1477.9033,1285.1357 A0,0 0 0 0 1477.9033,1285.1357" fill="#FEFFDD" style="stroke:#181818;stroke-width:0.5;"/><path d="M1572.9463,1285.1357 L1572.9463,1295.1357 L1582.9463,1295.1357 L1572.9463,1285.1357" fill="#FEFFDD" style="stroke:#181818;stroke-width:0.5;"/><text fill="#000000" font-family="sans-serif" font-size="13" lengthAdjust="spacing" textLength="84.043" x="1483.9033" y="1302.2026">&lt; 20 sv: -0.3</text><text fill="#000000" font-family="sans-serif" font-size="13" lengthAdjust="spacing" textLength="71.6523" x="1483.9033" y="1317.3354">20-29: -0.2</text><text fill="#000000" font-family="sans-serif" font-size="13" lengthAdjust="spacing" textLength="71.6523" x="1483.9033" y="1332.4683">30-39: -0.1</text><text fill="#000000" font-family="sans-serif" font-size="13" lengthAdjust="spacing" textLength="66.9614" x="1483.9033" y="1347.6011">40-49: 0.0</text><text fill="#000000" font-family="sans-serif" font-size="13" lengthAdjust="spacing" textLength="77.854" x="1483.9033" y="1362.7339">50-59: +0.1</text><text fill="#000000" font-family="sans-serif" font-size="13" lengthAdjust="spacing" textLength="77.854" x="1483.9033" y="1377.8667">60-69: +0.2</text><text fill="#000000" font-family="sans-serif" font-size="13" lengthAdjust="spacing" textLength="82.5386" x="1483.9033" y="1392.9995">&gt;= 70: +0.3</text><rect fill="#F1F1F1" height="33.9688" rx="12.5" ry="12.5" style="stroke:#181818;stroke-width:0.5;" width="146.0234" x="1311.8799" y="1326.1162"/><text fill="#000000" font-family="sans-serif" font-size="12" lengthAdjust="spacing" textLength="126.0234" x="1321.8799" y="1347.2549">T&#237;nh class coefficient</text><path d="M1484.1875,1434.1592 L1484.1875,1452.6201 L1464.1875,1456.6201 L1484.1875,1460.6201 L1484.1875,1479.0811 A0,0 0 0 0 1484.1875,1479.0811 L1759.1318,1479.0811 A0,0 0 0 0 1759.1318,1479.0811 L1759.1318,1444.1592 L1749.1318,1434.1592 L1484.1875,1434.1592 A0,0 0 0 0 1484.1875,1434.1592" fill="#FEFFDD" style="stroke:#181818;stroke-width:0.5;"/><path d="M1749.1318,1434.1592 L1749.1318,1444.1592 L1759.1318,1444.1592 L1749.1318,1434.1592" fill="#FEFFDD" style="stroke:#181818;stroke-width:0.5;"/><text fill="#000000" font-family="sans-serif" font-size="17" font-weight="bold" lengthAdjust="spacing" textLength="159.2339" x="1490.1875" y="1454.939">actual_lessons &#215;</text><text fill="#000000" font-family="sans-serif" font-size="13" lengthAdjust="spacing" textLength="253.9443" x="1490.1875" y="1471.0151">(course_coefficient + class_coefficient)</text><rect fill="#F1F1F1" height="33.9688" rx="12.5" ry="12.5" style="stroke:#181818;stroke-width:0.5;" width="158.5918" x="1305.5957" y="1439.6357"/><text fill="#000000" font-family="sans-serif" font-size="12" lengthAdjust="spacing" textLength="138.5918" x="1315.5957" y="1460.7744">T&#237;nh converted lessons</text><path d="M1463.5273,1489.0811 L1463.5273,1515.1084 L1443.5273,1519.1084 L1463.5273,1523.1084 L1463.5273,1549.1357 A0,0 0 0 0 1463.5273,1549.1357 L1681.3638,1549.1357 A0,0 0 0 0 1681.3638,1549.1357 L1681.3638,1499.0811 L1671.3638,1489.0811 L1463.5273,1489.0811 A0,0 0 0 0 1463.5273,1489.0811" fill="#FEFFDD" style="stroke:#181818;stroke-width:0.5;"/><path d="M1671.3638,1489.0811 L1671.3638,1499.0811 L1681.3638,1499.0811 L1671.3638,1489.0811" fill="#FEFFDD" style="stroke:#181818;stroke-width:0.5;"/><text fill="#000000" font-family="sans-serif" font-size="17" font-weight="bold" lengthAdjust="spacing" textLength="196.8364" x="1469.5273" y="1509.8608">converted_lessons &#215;</text><text fill="#000000" font-family="sans-serif" font-size="13" lengthAdjust="spacing" textLength="139.2739" x="1469.5273" y="1525.937">teacher_coefficient &#215;</text><text fill="#000000" font-family="sans-serif" font-size="13" lengthAdjust="spacing" textLength="152.7881" x="1469.5273" y="1541.0698">base_salary_per_lesson</text><rect fill="#F1F1F1" height="33.9688" rx="12.5" ry="12.5" style="stroke:#181818;stroke-width:0.5;" width="117.2715" x="1326.2559" y="1502.124"/><text fill="#000000" font-family="sans-serif" font-size="12" lengthAdjust="spacing" textLength="97.2715" x="1336.2559" y="1523.2627">T&#237;nh total salary</text><rect fill="#F1F1F1" height="33.9688" rx="12.5" ry="12.5" style="stroke:#181818;stroke-width:0.5;" width="172.0098" x="1298.8867" y="1569.1357"/><text fill="#000000" font-family="sans-serif" font-size="12" lengthAdjust="spacing" textLength="152.0098" x="1308.8867" y="1590.2744">Th&#234;m v&#224;o bulkInsertData</text><polygon fill="#F1F1F1" points="1341.5308,1623.1045,1428.2524,1623.1045,1440.2524,1635.1045,1428.2524,1647.1045,1341.5308,1647.1045,1329.5308,1635.1045,1341.5308,1623.1045" style="stroke:#181818;stroke-width:0.5;"/><text fill="#000000" font-family="sans-serif" font-size="11" lengthAdjust="spacing" textLength="86.7217" x="1341.5308" y="1638.9126">C&#242;n classroom?</text><text fill="#000000" font-family="sans-serif" font-size="11" lengthAdjust="spacing" textLength="19.2178" x="1440.2524" y="1632.5103">Yes</text><line style="stroke:#000000;stroke-width:1.5;" x1="1292.8867" x2="1292.8867" y1="50.042" y2="1976.2075"/><rect fill="#F1F1F1" height="33.9688" rx="12.5" ry="12.5" style="stroke:#181818;stroke-width:0.5;" width="223.1152" x="1781.0303" y="1684.3638"/><text fill="#000000" font-family="sans-serif" font-size="12" lengthAdjust="spacing" textLength="203.1152" x="1791.0303" y="1705.5024">Bulk insert TeacherSalary records</text><rect fill="#F1F1F1" height="33.9688" rx="12.5" ry="12.5" style="stroke:#181818;stroke-width:0.5;" width="244.9121" x="1770.1318" y="1738.3325"/><text fill="#000000" font-family="sans-serif" font-size="12" lengthAdjust="spacing" textLength="224.9121" x="1780.1318" y="1759.4712">Update SalaryConfig status = 'active'</text><line style="stroke:#000000;stroke-width:1.5;" x1="1764.1318" x2="1764.1318" y1="50.042" y2="1976.2075"/><rect fill="#F1F1F1" height="33.9688" rx="12.5" ry="12.5" style="stroke:#181818;stroke-width:0.5;" width="165.043" x="2036.8828" y="1792.3013"/><text fill="#000000" font-family="sans-serif" font-size="12" lengthAdjust="spacing" textLength="145.043" x="2046.8828" y="1813.4399">Tr&#7843; v&#7873; k&#7871;t qu&#7843; t&#237;nh to&#225;n</text><rect fill="#F1F1F1" height="33.9688" rx="12.5" ry="12.5" style="stroke:#181818;stroke-width:0.5;" width="188.7207" x="2025.0439" y="1846.27"/><text fill="#000000" font-family="sans-serif" font-size="12" lengthAdjust="spacing" textLength="168.7207" x="2035.0439" y="1867.4087">Hi&#7875;n th&#7883; th&#7889;ng k&#234; t&#7893;ng quan</text><rect fill="#F1F1F1" height="33.9688" rx="12.5" ry="12.5" style="stroke:#181818;stroke-width:0.5;" width="153.4121" x="2042.6982" y="1900.2388"/><text fill="#000000" font-family="sans-serif" font-size="12" lengthAdjust="spacing" textLength="133.4121" x="2052.6982" y="1921.3774">C&#7853;p nh&#7853;t UI tr&#7841;ng th&#225;i</text><ellipse cx="2119.4043" cy="1965.2075" fill="none" rx="11" ry="11" style="stroke:#222222;stroke-width:1;"/><ellipse cx="2119.4043" cy="1965.2075" fill="#222222" rx="6" ry="6" style="stroke:#222222;stroke-width:1;"/><line style="stroke:#000000;stroke-width:1.5;" x1="2019.0439" x2="2019.0439" y1="50.042" y2="1976.2075"/><line style="stroke:#000000;stroke-width:1.5;" x1="2217.7646" x2="2217.7646" y1="50.042" y2="1976.2075"/><line style="stroke:#181818;stroke-width:1;" x1="106.7148" x2="106.7148" y1="95.9951" y2="115.9951"/><polygon fill="#181818" points="102.7148,105.9951,106.7148,115.9951,110.7148,105.9951,106.7148,109.9951" style="stroke:#181818;stroke-width:1;"/><line style="stroke:#181818;stroke-width:1;" x1="106.7148" x2="106.7148" y1="149.9639" y2="169.9639"/><polygon fill="#181818" points="102.7148,159.9639,106.7148,169.9639,110.7148,159.9639,106.7148,163.9639" style="stroke:#181818;stroke-width:1;"/><line style="stroke:#181818;stroke-width:1;" x1="278.1572" x2="278.1572" y1="306.3037" y2="336.2881"/><polygon fill="#181818" points="274.1572,326.2881,278.1572,336.2881,282.1572,326.2881,278.1572,330.2881" style="stroke:#181818;stroke-width:1;"/><line style="stroke:#181818;stroke-width:1;" x1="278.1572" x2="278.1572" y1="247.9326" y2="272.335"/><polygon fill="#181818" points="274.1572,262.335,278.1572,272.335,282.1572,262.335,278.1572,266.335" style="stroke:#181818;stroke-width:1;"/><line style="stroke:#181818;stroke-width:1;" x1="331.6328" x2="518.394" y1="235.9326" y2="235.9326"/><polygon fill="#181818" points="514.394,316.3037,518.394,326.3037,522.394,316.3037,518.394,320.3037" style="stroke:#181818;stroke-width:1;"/><line style="stroke:#181818;stroke-width:1;" x1="518.394" x2="518.394" y1="235.9326" y2="398.2881"/><polygon fill="#181818" points="514.394,388.2881,518.394,398.2881,522.394,388.2881,518.394,392.2881" style="stroke:#181818;stroke-width:1;"/><line style="stroke:#181818;stroke-width:1;" x1="600.7715" x2="600.7715" y1="568.6279" y2="588.6279"/><polygon fill="#181818" points="596.7715,578.6279,600.7715,588.6279,604.7715,578.6279,600.7715,582.6279" style="stroke:#181818;stroke-width:1;"/><line style="stroke:#181818;stroke-width:1;" x1="461.1265" x2="436.0166" y1="512.6592" y2="512.6592"/><line style="stroke:#181818;stroke-width:1;" x1="436.0166" x2="436.0166" y1="512.6592" y2="534.6592"/><polygon fill="#181818" points="432.0166,524.6592,436.0166,534.6592,440.0166,524.6592,436.0166,528.6592" style="stroke:#181818;stroke-width:1;"/><line style="stroke:#181818;stroke-width:1;" x1="575.6616" x2="600.7715" y1="512.6592" y2="512.6592"/><line style="stroke:#181818;stroke-width:1;" x1="600.7715" x2="600.7715" y1="512.6592" y2="534.6592"/><polygon fill="#181818" points="596.7715,524.6592,600.7715,534.6592,604.7715,524.6592,600.7715,528.6592" style="stroke:#181818;stroke-width:1;"/><line style="stroke:#181818;stroke-width:1;" x1="436.0166" x2="436.0166" y1="568.6279" y2="613.6279"/><line style="stroke:#181818;stroke-width:1;" x1="436.0166" x2="518.394" y1="613.6279" y2="613.6279"/><line style="stroke:#181818;stroke-width:1;" x1="518.394" x2="518.394" y1="613.6279" y2="628.6279"/><polygon fill="#181818" points="514.394,618.6279,518.394,628.6279,522.394,618.6279,518.394,622.6279" style="stroke:#181818;stroke-width:1;"/><line style="stroke:#181818;stroke-width:1;" x1="518.394" x2="518.394" y1="476.2568" y2="500.6592"/><polygon fill="#181818" points="514.394,490.6592,518.394,500.6592,522.394,490.6592,518.394,494.6592" style="stroke:#181818;stroke-width:1;"/><line style="stroke:#181818;stroke-width:1;" x1="572.1597" x2="698.3945" y1="464.2568" y2="464.2568"/><polygon fill="#181818" points="694.3945,555.1436,698.3945,565.1436,702.3945,555.1436,698.3945,559.1436" style="stroke:#181818;stroke-width:1;"/><line style="stroke:#181818;stroke-width:1;" x1="698.3945" x2="698.3945" y1="464.2568" y2="640.6279"/><line style="stroke:#181818;stroke-width:1;" x1="698.3945" x2="530.394" y1="640.6279" y2="640.6279"/><polygon fill="#181818" points="540.394,636.6279,530.394,640.6279,540.394,644.6279,536.394,640.6279" style="stroke:#181818;stroke-width:1;"/><line style="stroke:#181818;stroke-width:1;" x1="518.394" x2="518.394" y1="432.2568" y2="452.2568"/><polygon fill="#181818" points="514.394,442.2568,518.394,452.2568,522.394,442.2568,518.394,446.2568" style="stroke:#181818;stroke-width:1;"/><line style="stroke:#181818;stroke-width:1;" x1="846.1201" x2="846.1201" y1="706.5967" y2="726.5967"/><polygon fill="#181818" points="842.1201,716.5967,846.1201,726.5967,850.1201,716.5967,846.1201,720.5967" style="stroke:#181818;stroke-width:1;"/><line style="stroke:#181818;stroke-width:1;" x1="846.1201" x2="846.1201" y1="862.9365" y2="892.9209"/><polygon fill="#181818" points="842.1201,882.9209,846.1201,892.9209,850.1201,882.9209,846.1201,886.9209" style="stroke:#181818;stroke-width:1;"/><line style="stroke:#181818;stroke-width:1;" x1="846.1201" x2="846.1201" y1="804.5654" y2="828.9678"/><polygon fill="#181818" points="842.1201,818.9678,846.1201,828.9678,850.1201,818.9678,846.1201,822.9678" style="stroke:#181818;stroke-width:1;"/><line style="stroke:#181818;stroke-width:1;" x1="909.9646" x2="1139.3662" y1="792.5654" y2="792.5654"/><polygon fill="#181818" points="1135.3662,872.9365,1139.3662,882.9365,1143.3662,872.9365,1139.3662,876.9365" style="stroke:#181818;stroke-width:1;"/><line style="stroke:#181818;stroke-width:1;" x1="1139.3662" x2="1139.3662" y1="792.5654" y2="954.9209"/><polygon fill="#181818" points="1135.3662,944.9209,1139.3662,954.9209,1143.3662,944.9209,1139.3662,948.9209" style="stroke:#181818;stroke-width:1;"/><line style="stroke:#181818;stroke-width:1;" x1="846.1201" x2="846.1201" y1="760.5654" y2="780.5654"/><polygon fill="#181818" points="842.1201,770.5654,846.1201,780.5654,850.1201,770.5654,846.1201,774.5654" style="stroke:#181818;stroke-width:1;"/><line style="stroke:#181818;stroke-width:1;" x1="1139.3662" x2="1139.3662" y1="1032.8896" y2="1057.292"/><polygon fill="#181818" points="1135.3662,1047.292,1139.3662,1057.292,1143.3662,1047.292,1139.3662,1051.292" style="stroke:#181818;stroke-width:1;"/><line style="stroke:#181818;stroke-width:1;" x1="1193.7119" x2="1247.1338" y1="1020.8896" y2="1020.8896"/><polygon fill="#181818" points="1243.1338,1064.2764,1247.1338,1074.2764,1251.1338,1064.2764,1247.1338,1068.2764" style="stroke:#181818;stroke-width:1;"/><line style="stroke:#181818;stroke-width:1;" x1="1247.1338" x2="1247.1338" y1="1020.8896" y2="1123.2607"/><line style="stroke:#181818;stroke-width:1;" x1="1247.1338" x2="1151.3662" y1="1123.2607" y2="1123.2607"/><polygon fill="#181818" points="1161.3662,1119.2607,1151.3662,1123.2607,1161.3662,1127.2607,1157.3662,1123.2607" style="stroke:#181818;stroke-width:1;"/><line style="stroke:#181818;stroke-width:1;" x1="1139.3662" x2="1139.3662" y1="1091.2607" y2="1111.2607"/><polygon fill="#181818" points="1135.3662,1101.2607,1139.3662,1111.2607,1143.3662,1101.2607,1139.3662,1105.2607" style="stroke:#181818;stroke-width:1;"/><line style="stroke:#181818;stroke-width:1;" x1="1139.3662" x2="1139.3662" y1="988.8896" y2="1008.8896"/><polygon fill="#181818" points="1135.3662,998.8896,1139.3662,1008.8896,1143.3662,998.8896,1139.3662,1002.8896" style="stroke:#181818;stroke-width:1;"/><line style="stroke:#181818;stroke-width:1;" x1="1139.3662" x2="1139.3662" y1="1135.2607" y2="1155.2607"/><polygon fill="#181818" points="1135.3662,1145.2607,1139.3662,1155.2607,1143.3662,1145.2607,1139.3662,1149.2607" style="stroke:#181818;stroke-width:1;"/><line style="stroke:#181818;stroke-width:1;" x1="1384.8916" x2="1384.8916" y1="1275.1357" y2="1326.1162"/><polygon fill="#181818" points="1380.8916,1316.1162,1384.8916,1326.1162,1388.8916,1316.1162,1384.8916,1320.1162" style="stroke:#181818;stroke-width:1;"/><line style="stroke:#181818;stroke-width:1;" x1="1384.8916" x2="1384.8916" y1="1360.085" y2="1439.6357"/><polygon fill="#181818" points="1380.8916,1429.6357,1384.8916,1439.6357,1388.8916,1429.6357,1384.8916,1433.6357" style="stroke:#181818;stroke-width:1;"/><line style="stroke:#181818;stroke-width:1;" x1="1384.8916" x2="1384.8916" y1="1473.6045" y2="1502.124"/><polygon fill="#181818" points="1380.8916,1492.124,1384.8916,1502.124,1388.8916,1492.124,1384.8916,1496.124" style="stroke:#181818;stroke-width:1;"/><line style="stroke:#181818;stroke-width:1;" x1="1384.8916" x2="1384.8916" y1="1536.0928" y2="1569.1357"/><polygon fill="#181818" points="1380.8916,1559.1357,1384.8916,1569.1357,1388.8916,1559.1357,1384.8916,1563.1357" style="stroke:#181818;stroke-width:1;"/><line style="stroke:#181818;stroke-width:1;" x1="1384.8916" x2="1384.8916" y1="1603.1045" y2="1623.1045"/><polygon fill="#181818" points="1380.8916,1613.1045,1384.8916,1623.1045,1388.8916,1613.1045,1384.8916,1617.1045" style="stroke:#181818;stroke-width:1;"/><line style="stroke:#181818;stroke-width:1;" x1="1892.5879" x2="1892.5879" y1="1718.3325" y2="1738.3325"/><polygon fill="#181818" points="1888.5879,1728.3325,1892.5879,1738.3325,1896.5879,1728.3325,1892.5879,1732.3325" style="stroke:#181818;stroke-width:1;"/><line style="stroke:#181818;stroke-width:1;" x1="2119.4043" x2="2119.4043" y1="1826.27" y2="1846.27"/><polygon fill="#181818" points="2115.4043,1836.27,2119.4043,1846.27,2123.4043,1836.27,2119.4043,1840.27" style="stroke:#181818;stroke-width:1;"/><line style="stroke:#181818;stroke-width:1;" x1="2119.4043" x2="2119.4043" y1="1880.2388" y2="1900.2388"/><polygon fill="#181818" points="2115.4043,1890.2388,2119.4043,1900.2388,2123.4043,1890.2388,2119.4043,1894.2388" style="stroke:#181818;stroke-width:1;"/><line style="stroke:#181818;stroke-width:1;" x1="2119.4043" x2="2119.4043" y1="1934.2075" y2="1954.2075"/><polygon fill="#181818" points="2115.4043,1944.2075,2119.4043,1954.2075,2123.4043,1944.2075,2119.4043,1948.2075" style="stroke:#181818;stroke-width:1;"/><line style="stroke:#181818;stroke-width:1;" x1="106.7148" x2="106.7148" y1="203.9326" y2="208.9326"/><line style="stroke:#181818;stroke-width:1;" x1="106.7148" x2="278.1572" y1="208.9326" y2="208.9326"/><line style="stroke:#181818;stroke-width:1;" x1="278.1572" x2="278.1572" y1="208.9326" y2="223.9326"/><polygon fill="#181818" points="274.1572,213.9326,278.1572,223.9326,282.1572,213.9326,278.1572,217.9326" style="stroke:#181818;stroke-width:1;"/><line style="stroke:#181818;stroke-width:1;" x1="518.394" x2="518.394" y1="652.6279" y2="657.6279"/><line style="stroke:#181818;stroke-width:1;" x1="518.394" x2="846.1201" y1="657.6279" y2="657.6279"/><line style="stroke:#181818;stroke-width:1;" x1="846.1201" x2="846.1201" y1="657.6279" y2="672.6279"/><polygon fill="#181818" points="842.1201,662.6279,846.1201,672.6279,850.1201,662.6279,846.1201,666.6279" style="stroke:#181818;stroke-width:1;"/><line style="stroke:#181818;stroke-width:1;" x1="1139.3662" x2="1139.3662" y1="1179.2607" y2="1184.2607"/><line style="stroke:#181818;stroke-width:1;" x1="1139.3662" x2="1384.8916" y1="1184.2607" y2="1184.2607"/><line style="stroke:#181818;stroke-width:1;" x1="1384.8916" x2="1384.8916" y1="1184.2607" y2="1199.2607"/><polygon fill="#181818" points="1380.8916,1189.2607,1384.8916,1199.2607,1388.8916,1189.2607,1384.8916,1193.2607" style="stroke:#181818;stroke-width:1;"/><line style="stroke:#181818;stroke-width:1;" x1="1440.2524" x2="1295.8093" y1="1635.1045" y2="1635.1045"/><polygon fill="#181818" points="1291.8093,1419.6357,1295.8093,1409.6357,1299.8093,1419.6357,1295.8093,1415.6357" style="stroke:#181818;stroke-width:1;"/><line style="stroke:#181818;stroke-width:1;" x1="1295.8093" x2="1295.8093" y1="1167.2607" y2="1635.1045"/><line style="stroke:#181818;stroke-width:1;" x1="1295.8093" x2="1151.3662" y1="1167.2607" y2="1167.2607"/><polygon fill="#181818" points="1161.3662,1163.2607,1151.3662,1167.2607,1161.3662,1171.2607,1157.3662,1167.2607" style="stroke:#181818;stroke-width:1;"/><line style="stroke:#181818;stroke-width:1;" x1="1384.8916" x2="1384.8916" y1="1647.1045" y2="1669.3638"/><line style="stroke:#181818;stroke-width:1;" x1="1384.8916" x2="1892.5879" y1="1669.3638" y2="1669.3638"/><line style="stroke:#181818;stroke-width:1;" x1="1892.5879" x2="1892.5879" y1="1669.3638" y2="1684.3638"/><polygon fill="#181818" points="1888.5879,1674.3638,1892.5879,1684.3638,1896.5879,1674.3638,1892.5879,1678.3638" style="stroke:#181818;stroke-width:1;"/><text fill="#000000" font-family="sans-serif" font-size="11" lengthAdjust="spacing" textLength="14.9585" x="1388.8916" y="1662.8638">No</text><line style="stroke:#181818;stroke-width:1;" x1="1892.5879" x2="1892.5879" y1="1772.3013" y2="1777.3013"/><line style="stroke:#181818;stroke-width:1;" x1="1892.5879" x2="2119.4043" y1="1777.3013" y2="1777.3013"/><line style="stroke:#181818;stroke-width:1;" x1="2119.4043" x2="2119.4043" y1="1777.3013" y2="1792.3013"/><polygon fill="#181818" points="2115.4043,1782.3013,2119.4043,1792.3013,2123.4043,1782.3013,2119.4043,1786.3013" style="stroke:#181818;stroke-width:1;"/><text fill="#000000" font-family="sans-serif" font-size="18" lengthAdjust="spacing" textLength="143.9912" x="33.7192" y="66.75">Admin Interface</text><text fill="#000000" font-family="sans-serif" font-size="18" lengthAdjust="spacing" textLength="120.5596" x="222.3774" y="66.75">Authorization</text><text fill="#000000" font-family="sans-serif" font-size="18" lengthAdjust="spacing" textLength="90.2813" x="497.999" y="66.75">Validation</text><text fill="#000000" font-family="sans-serif" font-size="18" lengthAdjust="spacing" textLength="153.3955" x="773.9224" y="66.75">Data Preparation</text><text fill="#000000" font-family="sans-serif" font-size="18" lengthAdjust="spacing" textLength="149.6162" x="1063.5581" y="66.75">Calculation Loop</text><text fill="#000000" font-family="sans-serif" font-size="18" lengthAdjust="spacing" textLength="178.2334" x="1439.3926" y="66.75">For Each Classroom</text><text fill="#000000" font-family="sans-serif" font-size="18" lengthAdjust="spacing" textLength="190.5645" x="1796.3057" y="66.75">Database Operations</text><text fill="#000000" font-family="sans-serif" font-size="18" lengthAdjust="spacing" textLength="87.2578" x="2074.7754" y="66.75">Response</text><!--SRC=[VLJDRzn45B_xhtZgWIOghamsBS9BYyg6YeWee6Q3u1HDxDdrQ6Tdt9ddHK5xGHmu82Gue8eJZH12hLJnKKxh0mT3_m__9xoPiPFD1woqjj-RDx_tUvyeK79uaA5O23o17S6cXiqXXd7pGXMmz-gtLwTg2kEs_Xt-_hQjVr3JA5e-oET2mQv2RYOiuyl88ZCOfK6V5MtzZO839fav6Mar4TDXb8wao6QWcXN2ZG0k0_YDeKEiiD16VCvGQBMCn0Gs3Yqt89kdu57VsGGik8ADVRqP0QIFE5P6mNOoW8VQ78iyvsf81rpb4PUMmyQdt6v698e9uN_CfCWxyFG3qTPVpW4Det-xSW5YqPoAIvGzYmDaM5cu1xbX4xp4ue81SqdaPnRUFT0l7HKQog9vLWA6kCcby5mzptrDwSwajZplBeo9r4-mQEiloBP-8c1MD7zwaiGxW0ozfGlMFod6QuBUOSZW8yDBPlhGzpJB0TlLpmYPSpAIp5gZzToINF_2mF8vjrHNgjX38Uc3g7Kca3Kl0JdB2cwEHDubQ4JASnFLFDMNIxKM3eP0ZfjJtGVbGFEs_XKaLUMhwdzgE68ogwIF1FQqBbqbAIC_2XSG0J9Zs8bDmN1RIRIl0pT66teVLtAsgwYTq6Maupq-hmKL3qrrfNJf9yrBjiuDnY7uq2QG_VDi6FKrFAD9wUOCwVgI-XBUemldILuwr3tA_acV2HGg9MNSGyDhiCEdXdEl7EdA47oc-MGYCi4LUlK1LjJjI2NJbKANCPzc7v0lnVeDTwmqSZ1YMg1lcxTXAm6xI25ERW-yPYk9jzxoyfQN1qay2F8RNjvEucsIazk95-yayHqIR_N7TvFuRf33zVltuCt4ouDGJi_W8a-j5bGGdeFarcfbh-7fPwfYygWpWUO9-8EDp2VcQ2rCk1L2NzTj_fTprCWaM5_6Q_sUiRlYkk__TTVzsJ4ZJW7rg2IRSFSQ4aNpV0uB6fKhhKa6eO7WiqBGPgRn-aETpnUrgB1TWyRtz_MmctBd6JuadtuwB4t6kmGCmYDVQbl3CsroodTwMD9Av1Us7jX-dTqC- -ocS_68sv9WQT6l3_EiNVs5yBXo2kposfpI5axVTmjM-NtrjNz-Hwq-QvxJeDRVq-VZYZcpKRjwKO8gw8Lmk7jn6PDVYxhy5m00]--></g></svg>