<svg xmlns="http://www.w3.org/2000/svg" xmlns:xlink="http://www.w3.org/1999/xlink" contentStyleType="text/css" data-diagram-type="ACTIVITY" height="2233px" preserveAspectRatio="none" style="width:1215px;height:2233px;background:#FFFFFF;" version="1.1" viewBox="0 0 1215 2233" width="1215px" zoomAndPan="magnify"><title>Activity Diagram - T&#7841;o L&#7899;p H&#7885;c H&#224;ng Lo&#7841;t</title><defs/><g><g class="title" data-source-line="1"><text fill="#000000" font-family="sans-serif" font-size="14" font-weight="bold" lengthAdjust="spacing" textLength="329.7656" x="441.5554" y="32.9951">Activity Diagram - T&#7841;o L&#7899;p H&#7885;c H&#224;ng Lo&#7841;t</text></g><rect fill="none" height="20.9531" style="stroke:none;stroke-width:1;" width="1182.8765" x="15" y="50.042"/><ellipse cx="129.5928" cy="85.9951" fill="#222222" rx="10" ry="10" style="stroke:#222222;stroke-width:1;"/><rect fill="#F1F1F1" height="33.9688" rx="12.5" ry="12.5" style="stroke:#181818;stroke-width:0.5;" width="217.1855" x="21" y="115.9951"/><text fill="#000000" font-family="sans-serif" font-size="12" lengthAdjust="spacing" textLength="197.1855" x="31" y="137.1338">Ng&#432;&#7901;i d&#249;ng click "T&#7841;o h&#224;ng lo&#7841;t"</text><rect fill="#F1F1F1" height="33.9688" rx="12.5" ry="12.5" style="stroke:#181818;stroke-width:0.5;" width="160.9883" x="49.0986" y="169.9639"/><text fill="#000000" font-family="sans-serif" font-size="12" lengthAdjust="spacing" textLength="140.9883" x="59.0986" y="191.1025">M&#7903; Bulk Creation Sheet</text><rect fill="#F1F1F1" height="117.7813" rx="12.5" ry="12.5" style="stroke:#181818;stroke-width:0.5;" width="123.2891" x="67.9482" y="223.9326"/><text fill="#000000" font-family="sans-serif" font-size="12" lengthAdjust="spacing" textLength="93.7441" x="77.9482" y="245.0713">Nh&#7853;p th&#244;ng tin:</text><text fill="#000000" font-family="sans-serif" font-size="12" lengthAdjust="spacing" textLength="63.6738" x="77.9482" y="259.04">- Kh&#243;a h&#7885;c</text><text fill="#000000" font-family="sans-serif" font-size="12" lengthAdjust="spacing" textLength="48.9727" x="77.9482" y="273.0088">- H&#7885;c k&#7923;</text><text fill="#000000" font-family="sans-serif" font-size="12" lengthAdjust="spacing" textLength="64.7109" x="77.9482" y="286.9775">- Gi&#225;o vi&#234;n</text><text fill="#000000" font-family="sans-serif" font-size="12" lengthAdjust="spacing" textLength="87.9727" x="77.9482" y="300.9463">- Prefix t&#234;n l&#7899;p</text><text fill="#000000" font-family="sans-serif" font-size="12" lengthAdjust="spacing" textLength="82.5293" x="77.9482" y="314.915">- S&#7889; l&#432;&#7907;ng l&#7899;p</text><text fill="#000000" font-family="sans-serif" font-size="12" lengthAdjust="spacing" textLength="103.2891" x="77.9482" y="328.8838">- S&#7889; sinh vi&#234;n/l&#7899;p</text><line style="stroke:#000000;stroke-width:1.5;" x1="15" x2="15" y1="50.042" y2="2221.98"/><rect fill="#F1F1F1" height="33.9688" rx="12.5" ry="12.5" style="stroke:#181818;stroke-width:0.5;" width="165.7988" x="248.1855" y="361.7139"/><text fill="#000000" font-family="sans-serif" font-size="12" lengthAdjust="spacing" textLength="145.7988" x="258.1855" y="382.8525">Validate d&#7919; li&#7879;u &#273;&#7847;u v&#224;o</text><rect fill="#F1F1F1" height="33.9688" rx="12.5" ry="12.5" style="stroke:#181818;stroke-width:0.5;" width="147.5234" x="257.3232" y="464.085"/><text fill="#000000" font-family="sans-serif" font-size="12" lengthAdjust="spacing" textLength="127.5234" x="267.3232" y="485.2236">Hi&#7875;n th&#7883; l&#7895;i validation</text><ellipse cx="331.085" cy="538.0381" fill="none" rx="10" ry="10" style="stroke:#222222;stroke-width:1.5;"/><line style="stroke:#222222;stroke-width:2.5;" x1="324.8978" x2="337.2721" y1="531.8509" y2="544.2253"/><line style="stroke:#222222;stroke-width:2.5;" x1="337.2721" x2="324.8978" y1="531.8509" y2="544.2253"/><polygon fill="#F1F1F1" points="290.0203,415.6826,372.1497,415.6826,384.1497,427.6826,372.1497,439.6826,290.0203,439.6826,278.0203,427.6826,290.0203,415.6826" style="stroke:#181818;stroke-width:0.5;"/><text fill="#000000" font-family="sans-serif" font-size="11" lengthAdjust="spacing" textLength="14.9585" x="335.085" y="449.8931">No</text><text fill="#000000" font-family="sans-serif" font-size="11" lengthAdjust="spacing" textLength="82.1294" x="290.0203" y="431.4907">D&#7919; li&#7879;u h&#7907;p l&#7879;?</text><text fill="#000000" font-family="sans-serif" font-size="11" lengthAdjust="spacing" textLength="19.2178" x="384.1497" y="425.0884">Yes</text><line style="stroke:#000000;stroke-width:1.5;" x1="242.1855" x2="242.1855" y1="50.042" y2="2221.98"/><rect fill="#F1F1F1" height="33.9688" rx="12.5" ry="12.5" style="stroke:#181818;stroke-width:0.5;" width="142.1973" x="464.1436" y="590.0381"/><text fill="#000000" font-family="sans-serif" font-size="12" lengthAdjust="spacing" textLength="122.1973" x="474.1436" y="611.1768">Ki&#7875;m tra quy&#7873;n user</text><rect fill="#F1F1F1" height="33.9688" rx="12.5" ry="12.5" style="stroke:#181818;stroke-width:0.5;" width="200.2402" x="435.1221" y="692.4092"/><text fill="#000000" font-family="sans-serif" font-size="12" lengthAdjust="spacing" textLength="180.2402" x="445.1221" y="713.5479">Ki&#7875;m tra kh&#243;a h&#7885;c thu&#7897;c khoa</text><rect fill="#F1F1F1" height="33.9688" rx="12.5" ry="12.5" style="stroke:#181818;stroke-width:0.5;" width="145.2969" x="462.5938" y="794.7803"/><text fill="#000000" font-family="sans-serif" font-size="12" lengthAdjust="spacing" textLength="125.2969" x="472.5938" y="815.9189">Tr&#7843; v&#7873; l&#7895;i permission</text><ellipse cx="535.2422" cy="866.2646" fill="none" rx="10" ry="10" style="stroke:#222222;stroke-width:1.5;"/><line style="stroke:#222222;stroke-width:2.5;" x1="529.055" x2="541.4294" y1="860.0775" y2="872.4518"/><line style="stroke:#222222;stroke-width:2.5;" x1="541.4294" x2="529.055" y1="860.0775" y2="872.4518"/><polygon fill="#F1F1F1" points="474.4521,746.3779,596.0322,746.3779,608.0322,758.3779,596.0322,770.3779,474.4521,770.3779,462.4521,758.3779,474.4521,746.3779" style="stroke:#181818;stroke-width:0.5;"/><text fill="#000000" font-family="sans-serif" font-size="11" lengthAdjust="spacing" textLength="14.9585" x="539.2422" y="780.5884">No</text><text fill="#000000" font-family="sans-serif" font-size="11" lengthAdjust="spacing" textLength="121.5801" x="474.4521" y="762.186">Kh&#243;a h&#7885;c thu&#7897;c khoa?</text><text fill="#000000" font-family="sans-serif" font-size="11" lengthAdjust="spacing" textLength="19.2178" x="608.0322" y="755.7837">Yes</text><rect fill="#F1F1F1" height="33.9688" rx="12.5" ry="12.5" style="stroke:#181818;stroke-width:0.5;" width="200.5156" x="434.9844" y="933.2646"/><text fill="#000000" font-family="sans-serif" font-size="12" lengthAdjust="spacing" textLength="180.5156" x="444.9844" y="954.4033">Ki&#7875;m tra gi&#225;o vi&#234;n thu&#7897;c khoa</text><rect fill="#F1F1F1" height="33.9688" rx="12.5" ry="12.5" style="stroke:#181818;stroke-width:0.5;" width="145.2969" x="462.5938" y="1035.6357"/><text fill="#000000" font-family="sans-serif" font-size="12" lengthAdjust="spacing" textLength="125.2969" x="472.5938" y="1056.7744">Tr&#7843; v&#7873; l&#7895;i permission</text><ellipse cx="535.2422" cy="1107.1201" fill="none" rx="10" ry="10" style="stroke:#222222;stroke-width:1.5;"/><line style="stroke:#222222;stroke-width:2.5;" x1="529.055" x2="541.4294" y1="1100.9329" y2="1113.3073"/><line style="stroke:#222222;stroke-width:2.5;" x1="541.4294" x2="529.055" y1="1100.9329" y2="1113.3073"/><polygon fill="#F1F1F1" points="473.9768,987.2334,596.5076,987.2334,608.5076,999.2334,596.5076,1011.2334,473.9768,1011.2334,461.9768,999.2334,473.9768,987.2334" style="stroke:#181818;stroke-width:0.5;"/><text fill="#000000" font-family="sans-serif" font-size="11" lengthAdjust="spacing" textLength="14.9585" x="539.2422" y="1021.4438">No</text><text fill="#000000" font-family="sans-serif" font-size="11" lengthAdjust="spacing" textLength="122.5308" x="473.9768" y="1003.0415">Gi&#225;o vi&#234;n thu&#7897;c khoa?</text><text fill="#000000" font-family="sans-serif" font-size="11" lengthAdjust="spacing" textLength="19.2178" x="608.5076" y="996.6392">Yes</text><polygon fill="#F1F1F1" points="461.9805,644.0068,608.5039,644.0068,620.5039,656.0068,608.5039,668.0068,461.9805,668.0068,449.9805,656.0068,461.9805,644.0068" style="stroke:#181818;stroke-width:0.5;"/><text fill="#000000" font-family="sans-serif" font-size="11" lengthAdjust="spacing" textLength="19.2178" x="539.2422" y="678.2173">Yes</text><text fill="#000000" font-family="sans-serif" font-size="11" lengthAdjust="spacing" textLength="146.5234" x="461.9805" y="659.8149">User l&#224; Department Head?</text><text fill="#000000" font-family="sans-serif" font-size="11" lengthAdjust="spacing" textLength="61.1714" x="620.5039" y="653.4126">No - Admin</text><polygon fill="#F1F1F1" points="535.2422,1159.1201,547.2422,1171.1201,535.2422,1183.1201,523.2422,1171.1201,535.2422,1159.1201" style="stroke:#181818;stroke-width:0.5;"/><line style="stroke:#000000;stroke-width:1.5;" x1="428.9844" x2="428.9844" y1="50.042" y2="2221.98"/><rect fill="#F1F1F1" height="33.9688" rx="12.5" ry="12.5" style="stroke:#181818;stroke-width:0.5;" width="197.4746" x="727.9646" y="1203.1201"/><text fill="#000000" font-family="sans-serif" font-size="12" lengthAdjust="spacing" textLength="177.4746" x="737.9646" y="1224.2588">Ki&#7875;m tra h&#7885;c k&#7923; &#273;&#227; t&#237;nh l&#432;&#417;ng</text><rect fill="#F1F1F1" height="33.9688" rx="12.5" ry="12.5" style="stroke:#181818;stroke-width:0.5;" width="163.3965" x="745.0037" y="1305.4912"/><text fill="#000000" font-family="sans-serif" font-size="12" lengthAdjust="spacing" textLength="143.3965" x="755.0037" y="1326.6299">Tr&#7843; v&#7873; l&#7895;i kh&#244;ng th&#7875; t&#7841;o</text><ellipse cx="826.7019" cy="1376.9756" fill="none" rx="10" ry="10" style="stroke:#222222;stroke-width:1.5;"/><line style="stroke:#222222;stroke-width:2.5;" x1="820.5147" x2="832.8891" y1="1370.7884" y2="1383.1628"/><line style="stroke:#222222;stroke-width:2.5;" x1="832.8891" x2="820.5147" y1="1370.7884" y2="1383.1628"/><polygon fill="#F1F1F1" points="713.6753,1257.0889,939.7285,1257.0889,951.7285,1269.0889,939.7285,1281.0889,713.6753,1281.0889,701.6753,1269.0889,713.6753,1257.0889" style="stroke:#181818;stroke-width:0.5;"/><text fill="#000000" font-family="sans-serif" font-size="11" lengthAdjust="spacing" textLength="19.2178" x="830.7019" y="1291.2993">Yes</text><text fill="#000000" font-family="sans-serif" font-size="11" lengthAdjust="spacing" textLength="226.0532" x="713.6753" y="1272.897">H&#7885;c k&#7923; &#273;&#227; c&#243; SalaryConfig active/closed?</text><text fill="#000000" font-family="sans-serif" font-size="11" lengthAdjust="spacing" textLength="14.9585" x="951.7285" y="1266.4946">No</text><rect fill="#F1F1F1" height="33.9688" rx="12.5" ry="12.5" style="stroke:#181818;stroke-width:0.5;" width="138.2832" x="757.5603" y="1428.9756"/><text fill="#000000" font-family="sans-serif" font-size="12" lengthAdjust="spacing" textLength="118.2832" x="767.5603" y="1450.1143">B&#7855;t &#273;&#7847;u transaction</text><rect fill="#F1F1F1" height="33.9688" rx="12.5" ry="12.5" style="stroke:#181818;stroke-width:0.5;" width="237.418" x="707.9929" y="1526.9443"/><text fill="#000000" font-family="sans-serif" font-size="12" lengthAdjust="spacing" textLength="217.418" x="717.9929" y="1548.083">T&#7841;o t&#234;n l&#7899;p: prefix + "N01", "N02"...</text><rect fill="#F1F1F1" height="33.9688" rx="12.5" ry="12.5" style="stroke:#181818;stroke-width:0.5;" width="152.9785" x="750.2126" y="1580.9131"/><text fill="#000000" font-family="sans-serif" font-size="12" lengthAdjust="spacing" textLength="132.9785" x="760.2126" y="1602.0518">Ki&#7875;m tra tr&#249;ng t&#234;n l&#7899;p</text><rect fill="#F1F1F1" height="33.9688" rx="12.5" ry="12.5" style="stroke:#181818;stroke-width:0.5;" width="142.4668" x="755.4685" y="1683.2842"/><text fill="#000000" font-family="sans-serif" font-size="12" lengthAdjust="spacing" textLength="122.4668" x="765.4685" y="1704.4229">Rollback transaction</text><rect fill="#F1F1F1" height="33.9688" rx="12.5" ry="12.5" style="stroke:#181818;stroke-width:0.5;" width="135.1016" x="759.1511" y="1748.7686"/><text fill="#000000" font-family="sans-serif" font-size="12" lengthAdjust="spacing" textLength="115.1016" x="769.1511" y="1769.9072">Tr&#7843; v&#7873; l&#7895;i duplicate</text><ellipse cx="826.7019" cy="1812.7373" fill="none" rx="10" ry="10" style="stroke:#222222;stroke-width:1.5;"/><line style="stroke:#222222;stroke-width:2.5;" x1="820.5147" x2="832.8891" y1="1806.5501" y2="1818.9245"/><line style="stroke:#222222;stroke-width:2.5;" x1="832.8891" x2="820.5147" y1="1806.5501" y2="1818.9245"/><polygon fill="#F1F1F1" points="775.2522,1634.8818,878.1516,1634.8818,890.1516,1646.8818,878.1516,1658.8818,775.2522,1658.8818,763.2522,1646.8818,775.2522,1634.8818" style="stroke:#181818;stroke-width:0.5;"/><text fill="#000000" font-family="sans-serif" font-size="11" lengthAdjust="spacing" textLength="19.2178" x="830.7019" y="1669.0923">Yes</text><text fill="#000000" font-family="sans-serif" font-size="11" lengthAdjust="spacing" textLength="102.8994" x="775.2522" y="1650.6899">T&#234;n l&#7899;p &#273;&#227; t&#7891;n t&#7841;i?</text><text fill="#000000" font-family="sans-serif" font-size="11" lengthAdjust="spacing" textLength="14.9585" x="890.1516" y="1644.2876">No</text><rect fill="#F1F1F1" height="33.9688" rx="12.5" ry="12.5" style="stroke:#181818;stroke-width:0.5;" width="151.3379" x="751.033" y="1864.7373"/><text fill="#000000" font-family="sans-serif" font-size="12" lengthAdjust="spacing" textLength="131.3379" x="761.033" y="1885.876">T&#7841;o Classroom record</text><polygon fill="#F1F1F1" points="826.7019,1482.9443,838.7019,1494.9443,826.7019,1506.9443,814.7019,1494.9443,826.7019,1482.9443" style="stroke:#181818;stroke-width:0.5;"/><polygon fill="#F1F1F1" points="780.6904,1918.7061,872.7134,1918.7061,884.7134,1930.7061,872.7134,1942.7061,780.6904,1942.7061,768.6904,1930.7061,780.6904,1918.7061" style="stroke:#181818;stroke-width:0.5;"/><text fill="#000000" font-family="sans-serif" font-size="11" lengthAdjust="spacing" textLength="92.0229" x="780.6904" y="1934.5142">C&#242;n l&#7899;p c&#7847;n t&#7841;o?</text><text fill="#000000" font-family="sans-serif" font-size="11" lengthAdjust="spacing" textLength="19.2178" x="884.7134" y="1928.1118">Yes</text><rect fill="#F1F1F1" height="33.9688" rx="12.5" ry="12.5" style="stroke:#181818;stroke-width:0.5;" width="138.7402" x="757.3318" y="1984.105"/><text fill="#000000" font-family="sans-serif" font-size="12" lengthAdjust="spacing" textLength="118.7402" x="767.3318" y="2005.2437">Commit transaction</text><line style="stroke:#000000;stroke-width:1.5;" x1="686.6753" x2="686.6753" y1="50.042" y2="2221.98"/><rect fill="#F1F1F1" height="33.9688" rx="12.5" ry="12.5" style="stroke:#181818;stroke-width:0.5;" width="203.2871" x="988.7285" y="2038.0737"/><text fill="#000000" font-family="sans-serif" font-size="12" lengthAdjust="spacing" textLength="183.2871" x="998.7285" y="2059.2124">Hi&#7875;n th&#7883; th&#244;ng b&#225;o th&#224;nh c&#244;ng</text><rect fill="#F1F1F1" height="33.9688" rx="12.5" ry="12.5" style="stroke:#181818;stroke-width:0.5;" width="187.5195" x="996.6123" y="2092.0425"/><text fill="#000000" font-family="sans-serif" font-size="12" lengthAdjust="spacing" textLength="167.5195" x="1006.6123" y="2113.1812">C&#7853;p nh&#7853;t danh s&#225;ch l&#7899;p h&#7885;c</text><rect fill="#F1F1F1" height="33.9688" rx="12.5" ry="12.5" style="stroke:#181818;stroke-width:0.5;" width="175.1563" x="1002.7939" y="2146.0112"/><text fill="#000000" font-family="sans-serif" font-size="12" lengthAdjust="spacing" textLength="155.1563" x="1012.7939" y="2167.1499">&#272;&#243;ng Bulk Creation Sheet</text><ellipse cx="1090.3721" cy="2210.98" fill="none" rx="11" ry="11" style="stroke:#222222;stroke-width:1;"/><ellipse cx="1090.3721" cy="2210.98" fill="#222222" rx="6" ry="6" style="stroke:#222222;stroke-width:1;"/><line style="stroke:#000000;stroke-width:1.5;" x1="982.7285" x2="982.7285" y1="50.042" y2="2221.98"/><line style="stroke:#000000;stroke-width:1.5;" x1="1196.0156" x2="1196.0156" y1="50.042" y2="2221.98"/><line style="stroke:#181818;stroke-width:1;" x1="129.5928" x2="129.5928" y1="95.9951" y2="115.9951"/><polygon fill="#181818" points="125.5928,105.9951,129.5928,115.9951,133.5928,105.9951,129.5928,109.9951" style="stroke:#181818;stroke-width:1;"/><line style="stroke:#181818;stroke-width:1;" x1="129.5928" x2="129.5928" y1="149.9639" y2="169.9639"/><polygon fill="#181818" points="125.5928,159.9639,129.5928,169.9639,133.5928,159.9639,129.5928,163.9639" style="stroke:#181818;stroke-width:1;"/><line style="stroke:#181818;stroke-width:1;" x1="129.5928" x2="129.5928" y1="203.9326" y2="223.9326"/><polygon fill="#181818" points="125.5928,213.9326,129.5928,223.9326,133.5928,213.9326,129.5928,217.9326" style="stroke:#181818;stroke-width:1;"/><line style="stroke:#181818;stroke-width:1;" x1="331.085" x2="331.085" y1="498.0537" y2="528.0381"/><polygon fill="#181818" points="327.085,518.0381,331.085,528.0381,335.085,518.0381,331.085,522.0381" style="stroke:#181818;stroke-width:1;"/><line style="stroke:#181818;stroke-width:1;" x1="331.085" x2="331.085" y1="439.6826" y2="464.085"/><polygon fill="#181818" points="327.085,454.085,331.085,464.085,335.085,454.085,331.085,458.085" style="stroke:#181818;stroke-width:1;"/><line style="stroke:#181818;stroke-width:1;" x1="384.1497" x2="535.2422" y1="427.6826" y2="427.6826"/><polygon fill="#181818" points="531.2422,508.0537,535.2422,518.0537,539.2422,508.0537,535.2422,512.0537" style="stroke:#181818;stroke-width:1;"/><line style="stroke:#181818;stroke-width:1;" x1="535.2422" x2="535.2422" y1="427.6826" y2="590.0381"/><polygon fill="#181818" points="531.2422,580.0381,535.2422,590.0381,539.2422,580.0381,535.2422,584.0381" style="stroke:#181818;stroke-width:1;"/><line style="stroke:#181818;stroke-width:1;" x1="331.085" x2="331.085" y1="395.6826" y2="415.6826"/><polygon fill="#181818" points="327.085,405.6826,331.085,415.6826,335.085,405.6826,331.085,409.6826" style="stroke:#181818;stroke-width:1;"/><line style="stroke:#181818;stroke-width:1;" x1="535.2422" x2="535.2422" y1="828.749" y2="856.2646"/><polygon fill="#181818" points="531.2422,846.2646,535.2422,856.2646,539.2422,846.2646,535.2422,850.2646" style="stroke:#181818;stroke-width:1;"/><line style="stroke:#181818;stroke-width:1;" x1="535.2422" x2="535.2422" y1="770.3779" y2="794.7803"/><polygon fill="#181818" points="531.2422,784.7803,535.2422,794.7803,539.2422,784.7803,535.2422,788.7803" style="stroke:#181818;stroke-width:1;"/><line style="stroke:#181818;stroke-width:1;" x1="608.0322" x2="620.0322" y1="758.3779" y2="758.3779"/><polygon fill="#181818" points="616.0322,826.2646,620.0322,836.2646,624.0322,826.2646,620.0322,830.2646" style="stroke:#181818;stroke-width:1;"/><line style="stroke:#181818;stroke-width:1;" x1="620.0322" x2="620.0322" y1="758.3779" y2="898.2646"/><line style="stroke:#181818;stroke-width:1;" x1="620.0322" x2="535.2422" y1="898.2646" y2="898.2646"/><line style="stroke:#181818;stroke-width:1;" x1="535.2422" x2="535.2422" y1="898.2646" y2="933.2646"/><polygon fill="#181818" points="531.2422,923.2646,535.2422,933.2646,539.2422,923.2646,535.2422,927.2646" style="stroke:#181818;stroke-width:1;"/><line style="stroke:#181818;stroke-width:1;" x1="535.2422" x2="535.2422" y1="726.3779" y2="746.3779"/><polygon fill="#181818" points="531.2422,736.3779,535.2422,746.3779,539.2422,736.3779,535.2422,740.3779" style="stroke:#181818;stroke-width:1;"/><line style="stroke:#181818;stroke-width:1;" x1="535.2422" x2="535.2422" y1="1069.6045" y2="1097.1201"/><polygon fill="#181818" points="531.2422,1087.1201,535.2422,1097.1201,539.2422,1087.1201,535.2422,1091.1201" style="stroke:#181818;stroke-width:1;"/><line style="stroke:#181818;stroke-width:1;" x1="535.2422" x2="535.2422" y1="1011.2334" y2="1035.6357"/><polygon fill="#181818" points="531.2422,1025.6357,535.2422,1035.6357,539.2422,1025.6357,535.2422,1029.6357" style="stroke:#181818;stroke-width:1;"/><line style="stroke:#181818;stroke-width:1;" x1="608.5076" x2="620.5076" y1="999.2334" y2="999.2334"/><polygon fill="#181818" points="616.5076,1067.1201,620.5076,1077.1201,624.5076,1067.1201,620.5076,1071.1201" style="stroke:#181818;stroke-width:1;"/><line style="stroke:#181818;stroke-width:1;" x1="620.5076" x2="620.5076" y1="999.2334" y2="1139.1201"/><line style="stroke:#181818;stroke-width:1;" x1="620.5076" x2="535.2422" y1="1139.1201" y2="1139.1201"/><line style="stroke:#181818;stroke-width:1;" x1="535.2422" x2="535.2422" y1="1139.1201" y2="1159.1201"/><polygon fill="#181818" points="531.2422,1149.1201,535.2422,1159.1201,539.2422,1149.1201,535.2422,1153.1201" style="stroke:#181818;stroke-width:1;"/><line style="stroke:#181818;stroke-width:1;" x1="535.2422" x2="535.2422" y1="967.2334" y2="987.2334"/><polygon fill="#181818" points="531.2422,977.2334,535.2422,987.2334,539.2422,977.2334,535.2422,981.2334" style="stroke:#181818;stroke-width:1;"/><line style="stroke:#181818;stroke-width:1;" x1="535.2422" x2="535.2422" y1="668.0068" y2="692.4092"/><polygon fill="#181818" points="531.2422,682.4092,535.2422,692.4092,539.2422,682.4092,535.2422,686.4092" style="stroke:#181818;stroke-width:1;"/><line style="stroke:#181818;stroke-width:1;" x1="620.5039" x2="645.5" y1="656.0068" y2="656.0068"/><polygon fill="#181818" points="641.5,905.7646,645.5,915.7646,649.5,905.7646,645.5,909.7646" style="stroke:#181818;stroke-width:1;"/><line style="stroke:#181818;stroke-width:1;" x1="645.5" x2="645.5" y1="656.0068" y2="1171.1201"/><line style="stroke:#181818;stroke-width:1;" x1="645.5" x2="547.2422" y1="1171.1201" y2="1171.1201"/><polygon fill="#181818" points="557.2422,1167.1201,547.2422,1171.1201,557.2422,1175.1201,553.2422,1171.1201" style="stroke:#181818;stroke-width:1;"/><line style="stroke:#181818;stroke-width:1;" x1="535.2422" x2="535.2422" y1="624.0068" y2="644.0068"/><polygon fill="#181818" points="531.2422,634.0068,535.2422,644.0068,539.2422,634.0068,535.2422,638.0068" style="stroke:#181818;stroke-width:1;"/><line style="stroke:#181818;stroke-width:1;" x1="826.7019" x2="826.7019" y1="1339.46" y2="1366.9756"/><polygon fill="#181818" points="822.7019,1356.9756,826.7019,1366.9756,830.7019,1356.9756,826.7019,1360.9756" style="stroke:#181818;stroke-width:1;"/><line style="stroke:#181818;stroke-width:1;" x1="826.7019" x2="826.7019" y1="1281.0889" y2="1305.4912"/><polygon fill="#181818" points="822.7019,1295.4912,826.7019,1305.4912,830.7019,1295.4912,826.7019,1299.4912" style="stroke:#181818;stroke-width:1;"/><line style="stroke:#181818;stroke-width:1;" x1="951.7285" x2="963.7285" y1="1269.0889" y2="1269.0889"/><polygon fill="#181818" points="959.7285,1336.9756,963.7285,1346.9756,967.7285,1336.9756,963.7285,1340.9756" style="stroke:#181818;stroke-width:1;"/><line style="stroke:#181818;stroke-width:1;" x1="963.7285" x2="963.7285" y1="1269.0889" y2="1408.9756"/><line style="stroke:#181818;stroke-width:1;" x1="963.7285" x2="826.7019" y1="1408.9756" y2="1408.9756"/><line style="stroke:#181818;stroke-width:1;" x1="826.7019" x2="826.7019" y1="1408.9756" y2="1428.9756"/><polygon fill="#181818" points="822.7019,1418.9756,826.7019,1428.9756,830.7019,1418.9756,826.7019,1422.9756" style="stroke:#181818;stroke-width:1;"/><line style="stroke:#181818;stroke-width:1;" x1="826.7019" x2="826.7019" y1="1237.0889" y2="1257.0889"/><polygon fill="#181818" points="822.7019,1247.0889,826.7019,1257.0889,830.7019,1247.0889,826.7019,1251.0889" style="stroke:#181818;stroke-width:1;"/><line style="stroke:#181818;stroke-width:1;" x1="826.7019" x2="826.7019" y1="1560.9131" y2="1580.9131"/><polygon fill="#181818" points="822.7019,1570.9131,826.7019,1580.9131,830.7019,1570.9131,826.7019,1574.9131" style="stroke:#181818;stroke-width:1;"/><line style="stroke:#181818;stroke-width:1;" x1="826.7019" x2="826.7019" y1="1717.2529" y2="1748.7686"/><polygon fill="#181818" points="822.7019,1738.7686,826.7019,1748.7686,830.7019,1738.7686,826.7019,1742.7686" style="stroke:#181818;stroke-width:1;"/><line style="stroke:#181818;stroke-width:1;" x1="826.7019" x2="826.7019" y1="1782.7373" y2="1802.7373"/><polygon fill="#181818" points="822.7019,1792.7373,826.7019,1802.7373,830.7019,1792.7373,826.7019,1796.7373" style="stroke:#181818;stroke-width:1;"/><line style="stroke:#181818;stroke-width:1;" x1="826.7019" x2="826.7019" y1="1658.8818" y2="1683.2842"/><polygon fill="#181818" points="822.7019,1673.2842,826.7019,1683.2842,830.7019,1673.2842,826.7019,1677.2842" style="stroke:#181818;stroke-width:1;"/><line style="stroke:#181818;stroke-width:1;" x1="890.1516" x2="907.9353" y1="1646.8818" y2="1646.8818"/><polygon fill="#181818" points="903.9353,1745.7686,907.9353,1755.7686,911.9353,1745.7686,907.9353,1749.7686" style="stroke:#181818;stroke-width:1;"/><line style="stroke:#181818;stroke-width:1;" x1="907.9353" x2="907.9353" y1="1646.8818" y2="1844.7373"/><line style="stroke:#181818;stroke-width:1;" x1="907.9353" x2="826.7019" y1="1844.7373" y2="1844.7373"/><line style="stroke:#181818;stroke-width:1;" x1="826.7019" x2="826.7019" y1="1844.7373" y2="1864.7373"/><polygon fill="#181818" points="822.7019,1854.7373,826.7019,1864.7373,830.7019,1854.7373,826.7019,1858.7373" style="stroke:#181818;stroke-width:1;"/><line style="stroke:#181818;stroke-width:1;" x1="826.7019" x2="826.7019" y1="1614.8818" y2="1634.8818"/><polygon fill="#181818" points="822.7019,1624.8818,826.7019,1634.8818,830.7019,1624.8818,826.7019,1628.8818" style="stroke:#181818;stroke-width:1;"/><line style="stroke:#181818;stroke-width:1;" x1="826.7019" x2="826.7019" y1="1506.9443" y2="1526.9443"/><polygon fill="#181818" points="822.7019,1516.9443,826.7019,1526.9443,830.7019,1516.9443,826.7019,1520.9443" style="stroke:#181818;stroke-width:1;"/><line style="stroke:#181818;stroke-width:1;" x1="884.7134" x2="957.4109" y1="1930.7061" y2="1930.7061"/><polygon fill="#181818" points="953.4109,1728.7686,957.4109,1718.7686,961.4109,1728.7686,957.4109,1724.7686" style="stroke:#181818;stroke-width:1;"/><line style="stroke:#181818;stroke-width:1;" x1="957.4109" x2="957.4109" y1="1494.9443" y2="1930.7061"/><line style="stroke:#181818;stroke-width:1;" x1="957.4109" x2="838.7019" y1="1494.9443" y2="1494.9443"/><polygon fill="#181818" points="848.7019,1490.9443,838.7019,1494.9443,848.7019,1498.9443,844.7019,1494.9443" style="stroke:#181818;stroke-width:1;"/><line style="stroke:#181818;stroke-width:1;" x1="826.7019" x2="826.7019" y1="1898.7061" y2="1918.7061"/><polygon fill="#181818" points="822.7019,1908.7061,826.7019,1918.7061,830.7019,1908.7061,826.7019,1912.7061" style="stroke:#181818;stroke-width:1;"/><line style="stroke:#181818;stroke-width:1;" x1="826.7019" x2="826.7019" y1="1462.9443" y2="1482.9443"/><polygon fill="#181818" points="822.7019,1472.9443,826.7019,1482.9443,830.7019,1472.9443,826.7019,1476.9443" style="stroke:#181818;stroke-width:1;"/><line style="stroke:#181818;stroke-width:1;" x1="826.7019" x2="826.7019" y1="1942.7061" y2="1984.105"/><polygon fill="#181818" points="822.7019,1974.105,826.7019,1984.105,830.7019,1974.105,826.7019,1978.105" style="stroke:#181818;stroke-width:1;"/><text fill="#000000" font-family="sans-serif" font-size="11" lengthAdjust="spacing" textLength="14.9585" x="830.7019" y="1964.0107">No</text><line style="stroke:#181818;stroke-width:1;" x1="1090.3721" x2="1090.3721" y1="2072.0425" y2="2092.0425"/><polygon fill="#181818" points="1086.3721,2082.0425,1090.3721,2092.0425,1094.3721,2082.0425,1090.3721,2086.0425" style="stroke:#181818;stroke-width:1;"/><line style="stroke:#181818;stroke-width:1;" x1="1090.3721" x2="1090.3721" y1="2126.0112" y2="2146.0112"/><polygon fill="#181818" points="1086.3721,2136.0112,1090.3721,2146.0112,1094.3721,2136.0112,1090.3721,2140.0112" style="stroke:#181818;stroke-width:1;"/><line style="stroke:#181818;stroke-width:1;" x1="1090.3721" x2="1090.3721" y1="2179.98" y2="2199.98"/><polygon fill="#181818" points="1086.3721,2189.98,1090.3721,2199.98,1094.3721,2189.98,1090.3721,2193.98" style="stroke:#181818;stroke-width:1;"/><line style="stroke:#181818;stroke-width:1;" x1="129.5928" x2="129.5928" y1="341.7139" y2="346.7139"/><line style="stroke:#181818;stroke-width:1;" x1="129.5928" x2="331.085" y1="346.7139" y2="346.7139"/><line style="stroke:#181818;stroke-width:1;" x1="331.085" x2="331.085" y1="346.7139" y2="361.7139"/><polygon fill="#181818" points="327.085,351.7139,331.085,361.7139,335.085,351.7139,331.085,355.7139" style="stroke:#181818;stroke-width:1;"/><line style="stroke:#181818;stroke-width:1;" x1="535.2422" x2="535.2422" y1="1183.1201" y2="1188.1201"/><line style="stroke:#181818;stroke-width:1;" x1="535.2422" x2="826.7019" y1="1188.1201" y2="1188.1201"/><line style="stroke:#181818;stroke-width:1;" x1="826.7019" x2="826.7019" y1="1188.1201" y2="1203.1201"/><polygon fill="#181818" points="822.7019,1193.1201,826.7019,1203.1201,830.7019,1193.1201,826.7019,1197.1201" style="stroke:#181818;stroke-width:1;"/><line style="stroke:#181818;stroke-width:1;" x1="826.7019" x2="826.7019" y1="2018.0737" y2="2023.0737"/><line style="stroke:#181818;stroke-width:1;" x1="826.7019" x2="1090.3721" y1="2023.0737" y2="2023.0737"/><line style="stroke:#181818;stroke-width:1;" x1="1090.3721" x2="1090.3721" y1="2023.0737" y2="2038.0737"/><polygon fill="#181818" points="1086.3721,2028.0737,1090.3721,2038.0737,1094.3721,2028.0737,1090.3721,2032.0737" style="stroke:#181818;stroke-width:1;"/><text fill="#000000" font-family="sans-serif" font-size="18" lengthAdjust="spacing" textLength="127.3359" x="64.9248" y="66.75">User Interface</text><text fill="#000000" font-family="sans-serif" font-size="18" lengthAdjust="spacing" textLength="146.1885" x="262.4907" y="66.75">Validation Layer</text><text fill="#000000" font-family="sans-serif" font-size="18" lengthAdjust="spacing" textLength="120.5596" x="497.55" y="66.75">Authorization</text><text fill="#000000" font-family="sans-serif" font-size="18" lengthAdjust="spacing" textLength="132.46" x="768.4719" y="66.75">Business Logic</text><text fill="#000000" font-family="sans-serif" font-size="18" lengthAdjust="spacing" textLength="87.2578" x="1045.7432" y="66.75">Response</text><!--SRC=[hLJFQnD15BxlN_78AKNRgiSDA6qAZRG6QQlWSRexoGwPdLbdPgEHNAI77aImU10HiIK7GIWLqulPuvR-7_EV-6Pts_neU_EIC6_Ullc-zttl6MOuXRN0i3up0zXWfAj83CkmPoSd4hPjzYs1biq-1j3AZqKNjYLU6CyRlj1KmLDXgEgGW0uzROWodj_kNlwssNS6OVuNqmFEWXxKocfHKO4N5MeDptzcin-mdl8UD1KbXaa1kn6b1g_QaPsS9c2Y_1m_CKputZ9iHVcOGEJGuAb4rRFP602Fcop79_ei_oNmz5pH3diB1a_07GcCxThi2BY3Dt8mPgEQYQZyThM8Dv3WIy9PMABQ9WEgXfvVXIY4DZi3pcnscCB5aPtyJA6V7qlyZ7MWlZ5pYsX7YNliyCaIqg42wcsvv07uBKmu41YpsGUNy8L1__h91cPG4NgKQmhrLrGlUNXa7SIrbff8AlQko4DGMwvE34OHU9qERFPUG8hQL5WAcNX-31iqGO5YAWoqA0clqHIr4SvCcTwqpvYKskmhzZcIn85oDRVkk5zWY4Ntb9sCe8-WAeO9LJ7Jkc9OSiJVASiYX3nHqtbGtQc-juBQlEF-Vu8gGss9yx4MnanCHLbFqK9KQvoFBWlcLOccHhquoaTeobDq6nhnyaHqAvbQ2pb1FePTmeaQDANei2uGDw9qDU1IqvlYtQ3KgmO7tpu0uwPltb6k6HLsVzrEpioLZH6mqEunrmnFqGG7itYXcE3fFFcGb2Ds3shj1mzhzztVezhAoafZGJYZYaqm_RHHYkjexrq7gzROxBCeyB95ZbXqHtA-Jt2Vp86yNTCmJN3ruApUbBGqmgpDId9DJhHMKiQWQ21LME0iEm1l8ePxijxC_rpX3R1T9LI9K9ckW2u_Rhiru3Tb73EpqCxX3jM951hNvVpuLtjktrdOk3KPeGFEdJlyPh48XTk71aA2Dpe_2Q8AHU4jpBhub8-nmAtB55UpJFu1]--></g></svg>