<svg xmlns="http://www.w3.org/2000/svg" xmlns:xlink="http://www.w3.org/1999/xlink" contentStyleType="text/css" data-diagram-type="ACTIVITY" height="2192px" preserveAspectRatio="none" style="width:1287px;height:2192px;background:#FFFFFF;" version="1.1" viewBox="0 0 1287 2192" width="1287px" zoomAndPan="magnify"><title>Activity Diagram - T&#7841;o Gi&#7843;ng Vi&#234;n</title><defs/><g><g class="title" data-source-line="1"><text fill="#000000" font-family="sans-serif" font-size="14" font-weight="bold" lengthAdjust="spacing" textLength="266.8135" x="508.7384" y="32.9951">Activity Diagram - T&#7841;o Gi&#7843;ng Vi&#234;n</text></g><rect fill="none" height="20.9531" style="stroke:none;stroke-width:1;" width="1254.2903" x="15" y="50.042"/><ellipse cx="103.0176" cy="85.9951" fill="#222222" rx="10" ry="10" style="stroke:#222222;stroke-width:1;"/><rect fill="#F1F1F1" height="33.9688" rx="12.5" ry="12.5" style="stroke:#181818;stroke-width:0.5;" width="164.0352" x="21" y="115.9951"/><text fill="#000000" font-family="sans-serif" font-size="12" lengthAdjust="spacing" textLength="144.0352" x="31" y="137.1338">Click "Th&#234;m gi&#7843;ng vi&#234;n"</text><rect fill="#F1F1F1" height="33.9688" rx="12.5" ry="12.5" style="stroke:#181818;stroke-width:0.5;" width="119.0938" x="43.4707" y="169.9639"/><text fill="#000000" font-family="sans-serif" font-size="12" lengthAdjust="spacing" textLength="99.0938" x="53.4707" y="191.1025">M&#7903; form t&#7841;o m&#7899;i</text><rect fill="#F1F1F1" height="145.7188" rx="12.5" ry="12.5" style="stroke:#181818;stroke-width:0.5;" width="113.7441" x="46.1455" y="223.9326"/><text fill="#000000" font-family="sans-serif" font-size="12" lengthAdjust="spacing" textLength="93.7441" x="56.1455" y="245.0713">Nh&#7853;p th&#244;ng tin:</text><text fill="#000000" font-family="sans-serif" font-size="12" lengthAdjust="spacing" textLength="48.0176" x="56.1455" y="259.04">- H&#7885; t&#234;n</text><text fill="#000000" font-family="sans-serif" font-size="12" lengthAdjust="spacing" textLength="41.4375" x="56.1455" y="273.0088">- Email</text><text fill="#000000" font-family="sans-serif" font-size="12" lengthAdjust="spacing" textLength="87.0117" x="56.1455" y="286.9775">- S&#7889; &#273;i&#7879;n tho&#7841;i</text><text fill="#000000" font-family="sans-serif" font-size="12" lengthAdjust="spacing" textLength="49.4824" x="56.1455" y="300.9463">- &#272;&#7883;a ch&#7881;</text><text fill="#000000" font-family="sans-serif" font-size="12" lengthAdjust="spacing" textLength="38.3145" x="56.1455" y="314.915">- Khoa</text><text fill="#000000" font-family="sans-serif" font-size="12" lengthAdjust="spacing" textLength="64.3359" x="56.1455" y="328.8838">- B&#7857;ng c&#7845;p</text><text fill="#000000" font-family="sans-serif" font-size="12" lengthAdjust="spacing" textLength="63.8848" x="56.1455" y="342.8525">- M&#7853;t kh&#7849;u</text><text fill="#000000" font-family="sans-serif" font-size="12" lengthAdjust="spacing" textLength="47.8359" x="56.1455" y="356.8213">- Vai tr&#242;</text><line style="stroke:#000000;stroke-width:1.5;" x1="15" x2="15" y1="50.042" y2="2180.7217"/><rect fill="#F1F1F1" height="33.9688" rx="12.5" ry="12.5" style="stroke:#181818;stroke-width:0.5;" width="134.9785" x="195.3148" y="389.6514"/><text fill="#000000" font-family="sans-serif" font-size="12" lengthAdjust="spacing" textLength="114.9785" x="205.3148" y="410.79">Validate client-side</text><rect fill="#F1F1F1" height="33.9688" rx="12.5" ry="12.5" style="stroke:#181818;stroke-width:0.5;" width="84.6289" x="220.4896" y="492.0225"/><text fill="#000000" font-family="sans-serif" font-size="12" lengthAdjust="spacing" textLength="64.6289" x="230.4896" y="513.1611">Hi&#7875;n th&#7883; l&#7895;i</text><ellipse cx="262.8041" cy="565.9756" fill="none" rx="11" ry="11" style="stroke:#222222;stroke-width:1;"/><ellipse cx="262.8041" cy="565.9756" fill="#222222" rx="6" ry="6" style="stroke:#222222;stroke-width:1;"/><polygon fill="#F1F1F1" points="221.7394,443.6201,303.8688,443.6201,315.8688,455.6201,303.8688,467.6201,221.7394,467.6201,209.7394,455.6201,221.7394,443.6201" style="stroke:#181818;stroke-width:0.5;"/><text fill="#000000" font-family="sans-serif" font-size="11" lengthAdjust="spacing" textLength="14.9585" x="266.8041" y="477.8306">No</text><text fill="#000000" font-family="sans-serif" font-size="11" lengthAdjust="spacing" textLength="82.1294" x="221.7394" y="459.4282">D&#7919; li&#7879;u h&#7907;p l&#7879;?</text><text fill="#000000" font-family="sans-serif" font-size="11" lengthAdjust="spacing" textLength="19.2178" x="315.8688" y="453.0259">Yes</text><line style="stroke:#000000;stroke-width:1.5;" x1="189.0352" x2="189.0352" y1="50.042" y2="2180.7217"/><rect fill="#F1F1F1" height="89.8438" rx="12.5" ry="12.5" style="stroke:#181818;stroke-width:0.5;" width="167.5156" x="353.1484" y="618.9756"/><text fill="#000000" font-family="sans-serif" font-size="12" lengthAdjust="spacing" textLength="124.0488" x="363.1484" y="640.1143">Validate server-side:</text><text fill="#000000" font-family="sans-serif" font-size="12" lengthAdjust="spacing" textLength="98.3145" x="363.1484" y="654.083">- Required fields</text><text fill="#000000" font-family="sans-serif" font-size="12" lengthAdjust="spacing" textLength="143.6367" x="363.1484" y="668.0518">- Email format &amp; unique</text><text fill="#000000" font-family="sans-serif" font-size="12" lengthAdjust="spacing" textLength="147.5156" x="363.1484" y="682.0205">- Phone format &amp; unique</text><text fill="#000000" font-family="sans-serif" font-size="12" lengthAdjust="spacing" textLength="144.8262" x="363.1484" y="695.9893">- Password confirmation</text><rect fill="#F1F1F1" height="33.9688" rx="12.5" ry="12.5" style="stroke:#181818;stroke-width:0.5;" width="163.0566" x="355.3779" y="777.2217"/><text fill="#000000" font-family="sans-serif" font-size="12" lengthAdjust="spacing" textLength="143.0566" x="365.3779" y="798.3604">Return validation errors</text><rect fill="#F1F1F1" height="33.9688" rx="12.5" ry="12.5" style="stroke:#181818;stroke-width:0.5;" width="145.0742" x="364.3691" y="831.1904"/><text fill="#000000" font-family="sans-serif" font-size="12" lengthAdjust="spacing" textLength="125.0742" x="374.3691" y="852.3291">Hi&#7875;n th&#7883; l&#7895;i tr&#234;n form</text><ellipse cx="436.9063" cy="896.1592" fill="none" rx="11" ry="11" style="stroke:#222222;stroke-width:1;"/><ellipse cx="436.9063" cy="896.1592" fill="#222222" rx="6" ry="6" style="stroke:#222222;stroke-width:1;"/><polygon fill="#F1F1F1" points="392.0603,728.8193,481.7522,728.8193,493.7522,740.8193,481.7522,752.8193,392.0603,752.8193,380.0603,740.8193,392.0603,728.8193" style="stroke:#181818;stroke-width:0.5;"/><text fill="#000000" font-family="sans-serif" font-size="11" lengthAdjust="spacing" textLength="14.9585" x="440.9063" y="763.0298">No</text><text fill="#000000" font-family="sans-serif" font-size="11" lengthAdjust="spacing" textLength="89.6919" x="392.0603" y="744.6274">Validation pass?</text><text fill="#000000" font-family="sans-serif" font-size="11" lengthAdjust="spacing" textLength="19.2178" x="493.7522" y="738.2251">Yes</text><line style="stroke:#000000;stroke-width:1.5;" x1="347.1484" x2="347.1484" y1="50.042" y2="2180.7217"/><rect fill="#F1F1F1" height="33.9688" rx="12.5" ry="12.5" style="stroke:#181818;stroke-width:0.5;" width="162.8398" x="572.7864" y="997.5615"/><text fill="#000000" font-family="sans-serif" font-size="12" lengthAdjust="spacing" textLength="142.8398" x="582.7864" y="1018.7002">Ki&#7875;m tra department_id</text><rect fill="#F1F1F1" height="33.9688" rx="12.5" ry="12.5" style="stroke:#181818;stroke-width:0.5;" width="163.4668" x="572.4729" y="1099.9326"/><text fill="#000000" font-family="sans-serif" font-size="12" lengthAdjust="spacing" textLength="143.4668" x="582.4729" y="1121.0713">Return permission error</text><ellipse cx="654.2063" cy="1173.417" fill="none" rx="11" ry="11" style="stroke:#222222;stroke-width:1;"/><ellipse cx="654.2063" cy="1173.417" fill="#222222" rx="6" ry="6" style="stroke:#222222;stroke-width:1;"/><polygon fill="#F1F1F1" points="562.6641,1051.5303,745.7485,1051.5303,757.7485,1063.5303,745.7485,1075.5303,562.6641,1075.5303,550.6641,1063.5303,562.6641,1051.5303" style="stroke:#181818;stroke-width:0.5;"/><text fill="#000000" font-family="sans-serif" font-size="11" lengthAdjust="spacing" textLength="19.2178" x="658.2063" y="1085.7407">Yes</text><text fill="#000000" font-family="sans-serif" font-size="11" lengthAdjust="spacing" textLength="183.0845" x="562.6641" y="1067.3384">Department kh&#225;c khoa c&#7911;a user?</text><text fill="#000000" font-family="sans-serif" font-size="11" lengthAdjust="spacing" textLength="14.9585" x="757.7485" y="1060.936">No</text><polygon fill="#F1F1F1" points="580.9446,949.1592,727.468,949.1592,739.468,961.1592,727.468,973.1592,580.9446,973.1592,568.9446,961.1592,580.9446,949.1592" style="stroke:#181818;stroke-width:0.5;"/><text fill="#000000" font-family="sans-serif" font-size="11" lengthAdjust="spacing" textLength="19.2178" x="658.2063" y="983.3696">Yes</text><text fill="#000000" font-family="sans-serif" font-size="11" lengthAdjust="spacing" textLength="146.5234" x="580.9446" y="964.9673">User l&#224; Department Head?</text><text fill="#000000" font-family="sans-serif" font-size="11" lengthAdjust="spacing" textLength="61.1714" x="739.468" y="958.5649">No - Admin</text><polygon fill="#F1F1F1" points="654.2063,1226.417,666.2063,1238.417,654.2063,1250.417,642.2063,1238.417,654.2063,1226.417" style="stroke:#181818;stroke-width:0.5;"/><line style="stroke:#000000;stroke-width:1.5;" x1="535.6641" x2="535.6641" y1="50.042" y2="2180.7217"/><rect fill="#F1F1F1" height="33.9688" rx="12.5" ry="12.5" style="stroke:#181818;stroke-width:0.5;" width="159.5703" x="842.7117" y="1270.417"/><text fill="#000000" font-family="sans-serif" font-size="12" lengthAdjust="spacing" textLength="139.5703" x="852.7117" y="1291.5557">B&#7855;t &#273;&#7847;u DB transaction</text><rect fill="#F1F1F1" height="33.9688" rx="12.5" ry="12.5" style="stroke:#181818;stroke-width:0.5;" width="137.0469" x="853.9734" y="1324.3857"/><text fill="#000000" font-family="sans-serif" font-size="12" lengthAdjust="spacing" textLength="117.0469" x="863.9734" y="1345.5244">T&#7841;o Teacher record</text><rect fill="#F1F1F1" height="33.9688" rx="12.5" ry="12.5" style="stroke:#181818;stroke-width:0.5;" width="142.4668" x="851.2634" y="1426.7568"/><text fill="#000000" font-family="sans-serif" font-size="12" lengthAdjust="spacing" textLength="122.4668" x="861.2634" y="1447.8955">Rollback transaction</text><rect fill="#F1F1F1" height="33.9688" rx="12.5" ry="12.5" style="stroke:#181818;stroke-width:0.5;" width="153.3594" x="845.8171" y="1480.7256"/><text fill="#000000" font-family="sans-serif" font-size="12" lengthAdjust="spacing" textLength="133.3594" x="855.8171" y="1501.8643">Return database error</text><ellipse cx="922.4968" cy="1545.6943" fill="none" rx="11" ry="11" style="stroke:#222222;stroke-width:1;"/><ellipse cx="922.4968" cy="1545.6943" fill="#222222" rx="6" ry="6" style="stroke:#222222;stroke-width:1;"/><polygon fill="#F1F1F1" points="853.822,1378.3545,991.1716,1378.3545,1003.1716,1390.3545,991.1716,1402.3545,853.822,1402.3545,841.822,1390.3545,853.822,1378.3545" style="stroke:#181818;stroke-width:0.5;"/><text fill="#000000" font-family="sans-serif" font-size="11" lengthAdjust="spacing" textLength="14.9585" x="926.4968" y="1412.5649">No</text><text fill="#000000" font-family="sans-serif" font-size="11" lengthAdjust="spacing" textLength="137.3496" x="853.822" y="1394.1626">Teacher t&#7841;o th&#224;nh c&#244;ng?</text><text fill="#000000" font-family="sans-serif" font-size="11" lengthAdjust="spacing" textLength="19.2178" x="1003.1716" y="1387.7603">Yes</text><rect fill="#F1F1F1" height="103.8125" rx="12.5" ry="12.5" style="stroke:#181818;stroke-width:0.5;" width="221.7148" x="811.6394" y="1598.6943"/><text fill="#000000" font-family="sans-serif" font-size="12" lengthAdjust="spacing" textLength="130.4473" x="821.6394" y="1619.833">T&#7841;o User account v&#7899;i:</text><text fill="#000000" font-family="sans-serif" font-size="12" lengthAdjust="spacing" textLength="113.7598" x="821.6394" y="1633.8018">- name = fullName</text><text fill="#000000" font-family="sans-serif" font-size="12" lengthAdjust="spacing" textLength="92.0156" x="821.6394" y="1647.7705">- email = email</text><text fill="#000000" font-family="sans-serif" font-size="12" lengthAdjust="spacing" textLength="126.8262" x="821.6394" y="1661.7393">- password = hashed</text><text fill="#000000" font-family="sans-serif" font-size="12" lengthAdjust="spacing" textLength="71.8125" x="821.6394" y="1675.708">- role = role</text><text fill="#000000" font-family="sans-serif" font-size="12" lengthAdjust="spacing" textLength="201.7148" x="821.6394" y="1689.6768">- department_id = department_id</text><rect fill="#F1F1F1" height="33.9688" rx="12.5" ry="12.5" style="stroke:#181818;stroke-width:0.5;" width="142.4668" x="851.2634" y="1770.9092"/><text fill="#000000" font-family="sans-serif" font-size="12" lengthAdjust="spacing" textLength="122.4668" x="861.2634" y="1792.0479">Rollback transaction</text><rect fill="#F1F1F1" height="33.9688" rx="12.5" ry="12.5" style="stroke:#181818;stroke-width:0.5;" width="198.5996" x="823.197" y="1824.8779"/><text fill="#000000" font-family="sans-serif" font-size="12" lengthAdjust="spacing" textLength="178.5996" x="833.197" y="1846.0166">Return account creation error</text><ellipse cx="922.4968" cy="1889.8467" fill="none" rx="11" ry="11" style="stroke:#222222;stroke-width:1;"/><ellipse cx="922.4968" cy="1889.8467" fill="#222222" rx="6" ry="6" style="stroke:#222222;stroke-width:1;"/><polygon fill="#F1F1F1" points="863.5544,1722.5068,981.4392,1722.5068,993.4392,1734.5068,981.4392,1746.5068,863.5544,1746.5068,851.5544,1734.5068,863.5544,1722.5068" style="stroke:#181818;stroke-width:0.5;"/><text fill="#000000" font-family="sans-serif" font-size="11" lengthAdjust="spacing" textLength="14.9585" x="926.4968" y="1756.7173">No</text><text fill="#000000" font-family="sans-serif" font-size="11" lengthAdjust="spacing" textLength="117.8848" x="863.5544" y="1738.3149">User t&#7841;o th&#224;nh c&#244;ng?</text><text fill="#000000" font-family="sans-serif" font-size="11" lengthAdjust="spacing" textLength="19.2178" x="993.4392" y="1731.9126">Yes</text><rect fill="#F1F1F1" height="33.9688" rx="12.5" ry="12.5" style="stroke:#181818;stroke-width:0.5;" width="138.7402" x="853.1267" y="1942.8467"/><text fill="#000000" font-family="sans-serif" font-size="12" lengthAdjust="spacing" textLength="118.7402" x="863.1267" y="1963.9854">Commit transaction</text><line style="stroke:#000000;stroke-width:1.5;" x1="805.6394" x2="805.6394" y1="50.042" y2="2180.7217"/><rect fill="#F1F1F1" height="33.9688" rx="12.5" ry="12.5" style="stroke:#181818;stroke-width:0.5;" width="179.0352" x="1070.5955" y="1996.8154"/><text fill="#000000" font-family="sans-serif" font-size="12" lengthAdjust="spacing" textLength="159.0352" x="1080.5955" y="2017.9541">Redirect to teachers.index</text><rect fill="#F1F1F1" height="33.9688" rx="12.5" ry="12.5" style="stroke:#181818;stroke-width:0.5;" width="175.3027" x="1072.4617" y="2050.7842"/><text fill="#000000" font-family="sans-serif" font-size="12" lengthAdjust="spacing" textLength="155.3027" x="1082.4617" y="2071.9229">Hi&#7875;n th&#7883; success message</text><rect fill="#F1F1F1" height="33.9688" rx="12.5" ry="12.5" style="stroke:#181818;stroke-width:0.5;" width="206.6328" x="1056.7966" y="2104.7529"/><text fill="#000000" font-family="sans-serif" font-size="12" lengthAdjust="spacing" textLength="186.6328" x="1066.7966" y="2125.8916">C&#7853;p nh&#7853;t danh s&#225;ch gi&#7843;ng vi&#234;n</text><ellipse cx="1160.113" cy="2169.7217" fill="none" rx="11" ry="11" style="stroke:#222222;stroke-width:1;"/><ellipse cx="1160.113" cy="2169.7217" fill="#222222" rx="6" ry="6" style="stroke:#222222;stroke-width:1;"/><line style="stroke:#000000;stroke-width:1.5;" x1="1050.7966" x2="1050.7966" y1="50.042" y2="2180.7217"/><line style="stroke:#000000;stroke-width:1.5;" x1="1267.4294" x2="1267.4294" y1="50.042" y2="2180.7217"/><line style="stroke:#181818;stroke-width:1;" x1="103.0176" x2="103.0176" y1="95.9951" y2="115.9951"/><polygon fill="#181818" points="99.0176,105.9951,103.0176,115.9951,107.0176,105.9951,103.0176,109.9951" style="stroke:#181818;stroke-width:1;"/><line style="stroke:#181818;stroke-width:1;" x1="103.0176" x2="103.0176" y1="149.9639" y2="169.9639"/><polygon fill="#181818" points="99.0176,159.9639,103.0176,169.9639,107.0176,159.9639,103.0176,163.9639" style="stroke:#181818;stroke-width:1;"/><line style="stroke:#181818;stroke-width:1;" x1="103.0176" x2="103.0176" y1="203.9326" y2="223.9326"/><polygon fill="#181818" points="99.0176,213.9326,103.0176,223.9326,107.0176,213.9326,103.0176,217.9326" style="stroke:#181818;stroke-width:1;"/><line style="stroke:#181818;stroke-width:1;" x1="262.8041" x2="262.8041" y1="525.9912" y2="554.9756"/><polygon fill="#181818" points="258.8041,544.9756,262.8041,554.9756,266.8041,544.9756,262.8041,548.9756" style="stroke:#181818;stroke-width:1;"/><line style="stroke:#181818;stroke-width:1;" x1="262.8041" x2="262.8041" y1="467.6201" y2="492.0225"/><polygon fill="#181818" points="258.8041,482.0225,262.8041,492.0225,266.8041,482.0225,262.8041,486.0225" style="stroke:#181818;stroke-width:1;"/><line style="stroke:#181818;stroke-width:1;" x1="315.8688" x2="436.9063" y1="455.6201" y2="455.6201"/><polygon fill="#181818" points="432.9063,535.9912,436.9063,545.9912,440.9063,535.9912,436.9063,539.9912" style="stroke:#181818;stroke-width:1;"/><line style="stroke:#181818;stroke-width:1;" x1="436.9063" x2="436.9063" y1="455.6201" y2="618.9756"/><polygon fill="#181818" points="432.9063,608.9756,436.9063,618.9756,440.9063,608.9756,436.9063,612.9756" style="stroke:#181818;stroke-width:1;"/><line style="stroke:#181818;stroke-width:1;" x1="262.8041" x2="262.8041" y1="423.6201" y2="443.6201"/><polygon fill="#181818" points="258.8041,433.6201,262.8041,443.6201,266.8041,433.6201,262.8041,437.6201" style="stroke:#181818;stroke-width:1;"/><line style="stroke:#181818;stroke-width:1;" x1="436.9063" x2="436.9063" y1="811.1904" y2="831.1904"/><polygon fill="#181818" points="432.9063,821.1904,436.9063,831.1904,440.9063,821.1904,436.9063,825.1904" style="stroke:#181818;stroke-width:1;"/><line style="stroke:#181818;stroke-width:1;" x1="436.9063" x2="436.9063" y1="865.1592" y2="885.1592"/><polygon fill="#181818" points="432.9063,875.1592,436.9063,885.1592,440.9063,875.1592,436.9063,879.1592" style="stroke:#181818;stroke-width:1;"/><line style="stroke:#181818;stroke-width:1;" x1="436.9063" x2="436.9063" y1="752.8193" y2="777.2217"/><polygon fill="#181818" points="432.9063,767.2217,436.9063,777.2217,440.9063,767.2217,436.9063,771.2217" style="stroke:#181818;stroke-width:1;"/><line style="stroke:#181818;stroke-width:1;" x1="493.7522" x2="654.2063" y1="740.8193" y2="740.8193"/><polygon fill="#181818" points="650.2063,846.6904,654.2063,856.6904,658.2063,846.6904,654.2063,850.6904" style="stroke:#181818;stroke-width:1;"/><line style="stroke:#181818;stroke-width:1;" x1="654.2063" x2="654.2063" y1="740.8193" y2="949.1592"/><polygon fill="#181818" points="650.2063,939.1592,654.2063,949.1592,658.2063,939.1592,654.2063,943.1592" style="stroke:#181818;stroke-width:1;"/><line style="stroke:#181818;stroke-width:1;" x1="436.9063" x2="436.9063" y1="708.8193" y2="728.8193"/><polygon fill="#181818" points="432.9063,718.8193,436.9063,728.8193,440.9063,718.8193,436.9063,722.8193" style="stroke:#181818;stroke-width:1;"/><line style="stroke:#181818;stroke-width:1;" x1="654.2063" x2="654.2063" y1="1133.9014" y2="1162.417"/><polygon fill="#181818" points="650.2063,1152.417,654.2063,1162.417,658.2063,1152.417,654.2063,1156.417" style="stroke:#181818;stroke-width:1;"/><line style="stroke:#181818;stroke-width:1;" x1="654.2063" x2="654.2063" y1="1075.5303" y2="1099.9326"/><polygon fill="#181818" points="650.2063,1089.9326,654.2063,1099.9326,658.2063,1089.9326,654.2063,1093.9326" style="stroke:#181818;stroke-width:1;"/><line style="stroke:#181818;stroke-width:1;" x1="757.7485" x2="769.7485" y1="1063.5303" y2="1063.5303"/><polygon fill="#181818" points="765.7485,1132.417,769.7485,1142.417,773.7485,1132.417,769.7485,1136.417" style="stroke:#181818;stroke-width:1;"/><line style="stroke:#181818;stroke-width:1;" x1="769.7485" x2="769.7485" y1="1063.5303" y2="1206.417"/><line style="stroke:#181818;stroke-width:1;" x1="769.7485" x2="654.2063" y1="1206.417" y2="1206.417"/><line style="stroke:#181818;stroke-width:1;" x1="654.2063" x2="654.2063" y1="1206.417" y2="1226.417"/><polygon fill="#181818" points="650.2063,1216.417,654.2063,1226.417,658.2063,1216.417,654.2063,1220.417" style="stroke:#181818;stroke-width:1;"/><line style="stroke:#181818;stroke-width:1;" x1="654.2063" x2="654.2063" y1="1031.5303" y2="1051.5303"/><polygon fill="#181818" points="650.2063,1041.5303,654.2063,1051.5303,658.2063,1041.5303,654.2063,1045.5303" style="stroke:#181818;stroke-width:1;"/><line style="stroke:#181818;stroke-width:1;" x1="654.2063" x2="654.2063" y1="973.1592" y2="997.5615"/><polygon fill="#181818" points="650.2063,987.5615,654.2063,997.5615,658.2063,987.5615,654.2063,991.5615" style="stroke:#181818;stroke-width:1;"/><line style="stroke:#181818;stroke-width:1;" x1="739.468" x2="779.7485" y1="961.1592" y2="961.1592"/><polygon fill="#181818" points="775.7485,1091.9326,779.7485,1101.9326,783.7485,1091.9326,779.7485,1095.9326" style="stroke:#181818;stroke-width:1;"/><line style="stroke:#181818;stroke-width:1;" x1="779.7485" x2="779.7485" y1="961.1592" y2="1238.417"/><line style="stroke:#181818;stroke-width:1;" x1="779.7485" x2="666.2063" y1="1238.417" y2="1238.417"/><polygon fill="#181818" points="676.2063,1234.417,666.2063,1238.417,676.2063,1242.417,672.2063,1238.417" style="stroke:#181818;stroke-width:1;"/><line style="stroke:#181818;stroke-width:1;" x1="922.4968" x2="922.4968" y1="1304.3857" y2="1324.3857"/><polygon fill="#181818" points="918.4968,1314.3857,922.4968,1324.3857,926.4968,1314.3857,922.4968,1318.3857" style="stroke:#181818;stroke-width:1;"/><line style="stroke:#181818;stroke-width:1;" x1="922.4968" x2="922.4968" y1="1460.7256" y2="1480.7256"/><polygon fill="#181818" points="918.4968,1470.7256,922.4968,1480.7256,926.4968,1470.7256,922.4968,1474.7256" style="stroke:#181818;stroke-width:1;"/><line style="stroke:#181818;stroke-width:1;" x1="922.4968" x2="922.4968" y1="1514.6943" y2="1534.6943"/><polygon fill="#181818" points="918.4968,1524.6943,922.4968,1534.6943,926.4968,1524.6943,922.4968,1528.6943" style="stroke:#181818;stroke-width:1;"/><line style="stroke:#181818;stroke-width:1;" x1="922.4968" x2="922.4968" y1="1402.3545" y2="1426.7568"/><polygon fill="#181818" points="918.4968,1416.7568,922.4968,1426.7568,926.4968,1416.7568,922.4968,1420.7568" style="stroke:#181818;stroke-width:1;"/><line style="stroke:#181818;stroke-width:1;" x1="1003.1716" x2="1015.1716" y1="1390.3545" y2="1390.3545"/><polygon fill="#181818" points="1011.1716,1478.7256,1015.1716,1488.7256,1019.1716,1478.7256,1015.1716,1482.7256" style="stroke:#181818;stroke-width:1;"/><line style="stroke:#181818;stroke-width:1;" x1="1015.1716" x2="1015.1716" y1="1390.3545" y2="1578.6943"/><line style="stroke:#181818;stroke-width:1;" x1="1015.1716" x2="922.4968" y1="1578.6943" y2="1578.6943"/><line style="stroke:#181818;stroke-width:1;" x1="922.4968" x2="922.4968" y1="1578.6943" y2="1598.6943"/><polygon fill="#181818" points="918.4968,1588.6943,922.4968,1598.6943,926.4968,1588.6943,922.4968,1592.6943" style="stroke:#181818;stroke-width:1;"/><line style="stroke:#181818;stroke-width:1;" x1="922.4968" x2="922.4968" y1="1358.3545" y2="1378.3545"/><polygon fill="#181818" points="918.4968,1368.3545,922.4968,1378.3545,926.4968,1368.3545,922.4968,1372.3545" style="stroke:#181818;stroke-width:1;"/><line style="stroke:#181818;stroke-width:1;" x1="922.4968" x2="922.4968" y1="1804.8779" y2="1824.8779"/><polygon fill="#181818" points="918.4968,1814.8779,922.4968,1824.8779,926.4968,1814.8779,922.4968,1818.8779" style="stroke:#181818;stroke-width:1;"/><line style="stroke:#181818;stroke-width:1;" x1="922.4968" x2="922.4968" y1="1858.8467" y2="1878.8467"/><polygon fill="#181818" points="918.4968,1868.8467,922.4968,1878.8467,926.4968,1868.8467,922.4968,1872.8467" style="stroke:#181818;stroke-width:1;"/><line style="stroke:#181818;stroke-width:1;" x1="922.4968" x2="922.4968" y1="1746.5068" y2="1770.9092"/><polygon fill="#181818" points="918.4968,1760.9092,922.4968,1770.9092,926.4968,1760.9092,922.4968,1764.9092" style="stroke:#181818;stroke-width:1;"/><line style="stroke:#181818;stroke-width:1;" x1="993.4392" x2="1031.7966" y1="1734.5068" y2="1734.5068"/><polygon fill="#181818" points="1027.7966,1822.8779,1031.7966,1832.8779,1035.7966,1822.8779,1031.7966,1826.8779" style="stroke:#181818;stroke-width:1;"/><line style="stroke:#181818;stroke-width:1;" x1="1031.7966" x2="1031.7966" y1="1734.5068" y2="1922.8467"/><line style="stroke:#181818;stroke-width:1;" x1="1031.7966" x2="922.4968" y1="1922.8467" y2="1922.8467"/><line style="stroke:#181818;stroke-width:1;" x1="922.4968" x2="922.4968" y1="1922.8467" y2="1942.8467"/><polygon fill="#181818" points="918.4968,1932.8467,922.4968,1942.8467,926.4968,1932.8467,922.4968,1936.8467" style="stroke:#181818;stroke-width:1;"/><line style="stroke:#181818;stroke-width:1;" x1="922.4968" x2="922.4968" y1="1702.5068" y2="1722.5068"/><polygon fill="#181818" points="918.4968,1712.5068,922.4968,1722.5068,926.4968,1712.5068,922.4968,1716.5068" style="stroke:#181818;stroke-width:1;"/><line style="stroke:#181818;stroke-width:1;" x1="1160.113" x2="1160.113" y1="2030.7842" y2="2050.7842"/><polygon fill="#181818" points="1156.113,2040.7842,1160.113,2050.7842,1164.113,2040.7842,1160.113,2044.7842" style="stroke:#181818;stroke-width:1;"/><line style="stroke:#181818;stroke-width:1;" x1="1160.113" x2="1160.113" y1="2084.7529" y2="2104.7529"/><polygon fill="#181818" points="1156.113,2094.7529,1160.113,2104.7529,1164.113,2094.7529,1160.113,2098.7529" style="stroke:#181818;stroke-width:1;"/><line style="stroke:#181818;stroke-width:1;" x1="1160.113" x2="1160.113" y1="2138.7217" y2="2158.7217"/><polygon fill="#181818" points="1156.113,2148.7217,1160.113,2158.7217,1164.113,2148.7217,1160.113,2152.7217" style="stroke:#181818;stroke-width:1;"/><line style="stroke:#181818;stroke-width:1;" x1="103.0176" x2="103.0176" y1="369.6514" y2="374.6514"/><line style="stroke:#181818;stroke-width:1;" x1="103.0176" x2="262.8041" y1="374.6514" y2="374.6514"/><line style="stroke:#181818;stroke-width:1;" x1="262.8041" x2="262.8041" y1="374.6514" y2="389.6514"/><polygon fill="#181818" points="258.8041,379.6514,262.8041,389.6514,266.8041,379.6514,262.8041,383.6514" style="stroke:#181818;stroke-width:1;"/><line style="stroke:#181818;stroke-width:1;" x1="654.2063" x2="654.2063" y1="1250.417" y2="1255.417"/><line style="stroke:#181818;stroke-width:1;" x1="654.2063" x2="922.4968" y1="1255.417" y2="1255.417"/><line style="stroke:#181818;stroke-width:1;" x1="922.4968" x2="922.4968" y1="1255.417" y2="1270.417"/><polygon fill="#181818" points="918.4968,1260.417,922.4968,1270.417,926.4968,1260.417,922.4968,1264.417" style="stroke:#181818;stroke-width:1;"/><line style="stroke:#181818;stroke-width:1;" x1="922.4968" x2="922.4968" y1="1976.8154" y2="1981.8154"/><line style="stroke:#181818;stroke-width:1;" x1="922.4968" x2="1160.113" y1="1981.8154" y2="1981.8154"/><line style="stroke:#181818;stroke-width:1;" x1="1160.113" x2="1160.113" y1="1981.8154" y2="1996.8154"/><polygon fill="#181818" points="1156.113,1986.8154,1160.113,1996.8154,1164.113,1986.8154,1160.113,1990.8154" style="stroke:#181818;stroke-width:1;"/><text fill="#000000" font-family="sans-serif" font-size="18" lengthAdjust="spacing" textLength="127.3359" x="38.3496" y="66.75">User Interface</text><text fill="#000000" font-family="sans-serif" font-size="18" lengthAdjust="spacing" textLength="148.1133" x="194.0352" y="66.75">Client Validation</text><text fill="#000000" font-family="sans-serif" font-size="18" lengthAdjust="spacing" textLength="155.0303" x="363.8911" y="66.75">Server Validation</text><text fill="#000000" font-family="sans-serif" font-size="18" lengthAdjust="spacing" textLength="181.6523" x="579.8256" y="66.75">Authorization Check</text><text fill="#000000" font-family="sans-serif" font-size="18" lengthAdjust="spacing" textLength="197.2266" x="829.6047" y="66.75">Database Transaction</text><text fill="#000000" font-family="sans-serif" font-size="18" lengthAdjust="spacing" textLength="87.2578" x="1115.4841" y="66.75">Response</text><!--SRC=[fLHDQnH14BtFhoXoaEIm_e1TWYIxOYGaI183dgJJKxlJx4ptfBjd_M1l7aH4C2SF7am84Wn8K3pj73T_PFw9hsU_t1XpyJ8zNLrTzLwzglRAfqmRqgk1yg-eeqJFYemQT52DpWmzKjNeNFVeK8qlTHGDdpgsz5XxjbqXUHWvBwoFckrKoJwj72JZounwqpk3S6Ub5JLtgl8BTOtDoDT1iwhyh63VJQhHzvnyClu5TwzqCshGLbL-81-oDUXX9bHAXB_zgZoXwnDLbMyrBXZ4KJ1VVwpAzu9aKfNliDrEZC2oMOr-8A2iHbzpR7UGnLCVoRuLs1uAHTwEVxP01xXPUvXI5GklZ1v6pUc6ITQ73QTYXg_gqcgdAgye3I0AGihpd5ByFrW38jQqkclM8gBc5XpU19J05Xm-WIkHyoQFE7LCgy_OhKMiOzK5X7ss0zJqTWYkFgmXXDhiyN6XBCVKLPp6RbwXK5lXwHuLMXqN3FkJn6Y-pIwSUs5iJDBehWgdo3Xbju10ETnkqjfZNrXDWuKNMskiQztEETJuKjSGxgA_KK1DgrvF8hOJblrXZQRkj7HyIXtEqMDPq6cBHJo7LOT1wksG6grb1SLpr-Sg3bbhqHRt-yduJE9hq39LUI6eG9AR0HTKSxQPScvEjLMVrao89bmcjPcGcLamF1jnflI2P4TuSIHmUc25Ta9EPKQVNdbqTJMwAAYp6IZCJY59SpA11onaWb9Obj1jAjNCE9ad3D2fJaY6CVfBDPEcHmB3kHHymJ6UGPip_8TIKpYrB49AKw2UWp38eJ6ro9ZMgLkawIv-OU6wCTSdA_RvhF7MAH4kuHWsQz9mAopOBOa7ymqn5qtn_wHd-ANbFphvBl9jasNAtr1ekCSkDzhX7KJa69CfuG9e4tNSVQLZVec7RcawN24bEqSPFgA7fwNPhfz1dTJlL2p0og5Fa-M75Fa2kDy0]--></g></svg>