<svg xmlns="http://www.w3.org/2000/svg" xmlns:xlink="http://www.w3.org/1999/xlink" contentStyleType="text/css" data-diagram-type="ACTIVITY" height="1985px" preserveAspectRatio="none" style="width:1477px;height:1985px;background:#FFFFFF;" version="1.1" viewBox="0 0 1477 1985" width="1477px" zoomAndPan="magnify"><title>Activity Diagram - X&#243;a L&#7899;p H&#7885;c</title><defs/><g><g class="title" data-source-line="1"><text fill="#000000" font-family="sans-serif" font-size="14" font-weight="bold" lengthAdjust="spacing" textLength="245.4307" x="614.4556" y="32.9951">Activity Diagram - X&#243;a L&#7899;p H&#7885;c</text></g><rect fill="none" height="20.9531" style="stroke:none;stroke-width:1;" width="1444.3418" x="15" y="50.042"/><ellipse cx="128.6934" cy="85.9951" fill="#222222" rx="10" ry="10" style="stroke:#222222;stroke-width:1;"/><rect fill="#F1F1F1" height="33.9688" rx="12.5" ry="12.5" style="stroke:#181818;stroke-width:0.5;" width="215.3867" x="21" y="115.9951"/><text fill="#000000" font-family="sans-serif" font-size="12" lengthAdjust="spacing" textLength="195.3867" x="31" y="137.1338">User click n&#250;t "X&#243;a" tr&#234;n l&#7899;p h&#7885;c</text><rect fill="#F1F1F1" height="33.9688" rx="12.5" ry="12.5" style="stroke:#181818;stroke-width:0.5;" width="156.7578" x="50.3145" y="169.9639"/><text fill="#000000" font-family="sans-serif" font-size="12" lengthAdjust="spacing" textLength="136.7578" x="60.3145" y="191.1025">Hi&#7875;n th&#7883; confirm dialog</text><rect fill="#F1F1F1" height="33.9688" rx="12.5" ry="12.5" style="stroke:#181818;stroke-width:0.5;" width="92.2754" x="82.5557" y="272.335"/><text fill="#000000" font-family="sans-serif" font-size="12" lengthAdjust="spacing" textLength="72.2754" x="92.5557" y="293.4736">&#272;&#243;ng dialog</text><ellipse cx="128.6934" cy="346.2881" fill="none" rx="11" ry="11" style="stroke:#222222;stroke-width:1;"/><ellipse cx="128.6934" cy="346.2881" fill="#222222" rx="6" ry="6" style="stroke:#222222;stroke-width:1;"/><polygon fill="#F1F1F1" points="74.5259,223.9326,182.8608,223.9326,194.8608,235.9326,182.8608,247.9326,74.5259,247.9326,62.5259,235.9326,74.5259,223.9326" style="stroke:#181818;stroke-width:0.5;"/><text fill="#000000" font-family="sans-serif" font-size="11" lengthAdjust="spacing" textLength="14.9585" x="132.6934" y="258.1431">No</text><text fill="#000000" font-family="sans-serif" font-size="11" lengthAdjust="spacing" textLength="108.335" x="74.5259" y="239.7407">User x&#225;c nh&#7853;n x&#243;a?</text><text fill="#000000" font-family="sans-serif" font-size="11" lengthAdjust="spacing" textLength="19.2178" x="194.8608" y="233.3384">Yes</text><line style="stroke:#000000;stroke-width:1.5;" x1="15" x2="15" y1="50.042" y2="1973.2529"/><rect fill="#F1F1F1" height="33.9688" rx="12.5" ry="12.5" style="stroke:#181818;stroke-width:0.5;" width="142.1973" x="278.1621" y="399.2881"/><text fill="#000000" font-family="sans-serif" font-size="12" lengthAdjust="spacing" textLength="122.1973" x="288.1621" y="420.4268">Ki&#7875;m tra quy&#7873;n user</text><rect fill="#F1F1F1" height="33.9688" rx="12.5" ry="12.5" style="stroke:#181818;stroke-width:0.5;" width="205.748" x="246.3867" y="501.6592"/><text fill="#000000" font-family="sans-serif" font-size="12" lengthAdjust="spacing" textLength="185.748" x="256.3867" y="522.7979">Load classroom v&#7899;i course info</text><rect fill="#F1F1F1" height="33.9688" rx="12.5" ry="12.5" style="stroke:#181818;stroke-width:0.5;" width="163.4668" x="267.5273" y="604.0303"/><text fill="#000000" font-family="sans-serif" font-size="12" lengthAdjust="spacing" textLength="143.4668" x="277.5273" y="625.1689">Return permission error</text><rect fill="#F1F1F1" height="33.9688" rx="12.5" ry="12.5" style="stroke:#181818;stroke-width:0.5;" width="149.4453" x="274.5381" y="660.5146"/><text fill="#000000" font-family="sans-serif" font-size="12" lengthAdjust="spacing" textLength="129.4453" x="284.5381" y="681.6533">Hi&#7875;n th&#7883; th&#244;ng b&#225;o l&#7895;i</text><ellipse cx="349.2607" cy="725.4834" fill="none" rx="11" ry="11" style="stroke:#222222;stroke-width:1;"/><ellipse cx="349.2607" cy="725.4834" fill="#222222" rx="6" ry="6" style="stroke:#222222;stroke-width:1;"/><polygon fill="#F1F1F1" points="279.9065,555.6279,418.615,555.6279,430.615,567.6279,418.615,579.6279,279.9065,579.6279,267.9065,567.6279,279.9065,555.6279" style="stroke:#181818;stroke-width:0.5;"/><text fill="#000000" font-family="sans-serif" font-size="11" lengthAdjust="spacing" textLength="19.2178" x="353.2607" y="589.8384">Yes</text><text fill="#000000" font-family="sans-serif" font-size="11" lengthAdjust="spacing" textLength="138.7085" x="279.9065" y="571.436">Course thu&#7897;c khoa kh&#225;c?</text><text fill="#000000" font-family="sans-serif" font-size="11" lengthAdjust="spacing" textLength="14.9585" x="430.615" y="565.0337">No</text><polygon fill="#F1F1F1" points="275.999,453.2568,422.5225,453.2568,434.5225,465.2568,422.5225,477.2568,275.999,477.2568,263.999,465.2568,275.999,453.2568" style="stroke:#181818;stroke-width:0.5;"/><text fill="#000000" font-family="sans-serif" font-size="11" lengthAdjust="spacing" textLength="19.2178" x="353.2607" y="487.4673">Yes</text><text fill="#000000" font-family="sans-serif" font-size="11" lengthAdjust="spacing" textLength="146.5234" x="275.999" y="469.0649">User l&#224; Department Head?</text><text fill="#000000" font-family="sans-serif" font-size="11" lengthAdjust="spacing" textLength="61.1714" x="434.5225" y="462.6626">No - Admin</text><polygon fill="#F1F1F1" points="349.2607,778.4834,361.2607,790.4834,349.2607,802.4834,337.2607,790.4834,349.2607,778.4834" style="stroke:#181818;stroke-width:0.5;"/><line style="stroke:#000000;stroke-width:1.5;" x1="240.3867" x2="240.3867" y1="50.042" y2="1973.2529"/><rect fill="#F1F1F1" height="33.9688" rx="12.5" ry="12.5" style="stroke:#181818;stroke-width:0.5;" width="279.8574" x="573.3213" y="822.4834"/><text fill="#000000" font-family="sans-serif" font-size="12" lengthAdjust="spacing" textLength="259.8574" x="583.3213" y="843.6221">Ki&#7875;m tra classroom c&#243; trong TeacherSalary</text><rect fill="#F1F1F1" height="33.9688" rx="12.5" ry="12.5" style="stroke:#181818;stroke-width:0.5;" width="213.9336" x="606.2832" y="924.8545"/><text fill="#000000" font-family="sans-serif" font-size="12" lengthAdjust="spacing" textLength="193.9336" x="616.2832" y="945.9932">Ki&#7875;m tra tr&#7841;ng th&#225;i SalaryConfig</text><polygon fill="#F1F1F1" points="633.5833,978.8232,792.9167,978.8232,804.9167,990.8232,792.9167,1002.8232,633.5833,1002.8232,621.5833,990.8232,633.5833,978.8232" style="stroke:#181818;stroke-width:0.5;"/><text fill="#000000" font-family="sans-serif" font-size="11" lengthAdjust="spacing" textLength="159.3335" x="633.5833" y="994.6313">Status = active ho&#7863;c closed?</text><text fill="#000000" font-family="sans-serif" font-size="11" lengthAdjust="spacing" textLength="19.2178" x="602.3655" y="988.229">Yes</text><text fill="#000000" font-family="sans-serif" font-size="11" lengthAdjust="spacing" textLength="52.3521" x="804.9167" y="988.229">No - draft</text><rect fill="#F1F1F1" height="33.9688" rx="12.5" ry="12.5" style="stroke:#181818;stroke-width:0.5;" width="155.5508" x="516.2593" y="1012.8232"/><text fill="#000000" font-family="sans-serif" font-size="12" lengthAdjust="spacing" textLength="135.5508" x="526.2593" y="1033.9619">Return reference error</text><rect fill="#F1F1F1" height="33.9688" rx="12.5" ry="12.5" style="stroke:#181818;stroke-width:0.5;" width="174.6816" x="506.6938" y="1066.792"/><text fill="#000000" font-family="sans-serif" font-size="12" lengthAdjust="spacing" textLength="154.6816" x="516.6938" y="1087.9307">Hi&#7875;n th&#7883; l&#7895;i kh&#244;ng th&#7875; x&#243;a</text><ellipse cx="594.0347" cy="1131.7607" fill="none" rx="11" ry="11" style="stroke:#222222;stroke-width:1;"/><ellipse cx="594.0347" cy="1131.7607" fill="#222222" rx="6" ry="6" style="stroke:#222222;stroke-width:1;"/><rect fill="#F1F1F1" height="33.9688" rx="12.5" ry="12.5" style="stroke:#181818;stroke-width:0.5;" width="262.1797" x="701.3755" y="1012.8232"/><text fill="#000000" font-family="sans-serif" font-size="12" lengthAdjust="spacing" textLength="242.1797" x="711.3755" y="1033.9619">Cho ph&#233;p x&#243;a (s&#7869; x&#243;a c&#7843; salary records)</text><polygon fill="#F1F1F1" points="666.4866,876.4521,760.0134,876.4521,772.0134,888.4521,760.0134,900.4521,666.4866,900.4521,654.4866,888.4521,666.4866,876.4521" style="stroke:#181818;stroke-width:0.5;"/><text fill="#000000" font-family="sans-serif" font-size="11" lengthAdjust="spacing" textLength="19.2178" x="717.25" y="910.6626">Yes</text><text fill="#000000" font-family="sans-serif" font-size="11" lengthAdjust="spacing" textLength="93.5269" x="666.4866" y="892.2603">C&#243; record l&#432;&#417;ng?</text><text fill="#000000" font-family="sans-serif" font-size="11" lengthAdjust="spacing" textLength="14.9585" x="772.0134" y="885.8579">No</text><polygon fill="#F1F1F1" points="713.25,1162.7607,725.25,1174.7607,713.25,1186.7607,701.25,1174.7607,713.25,1162.7607" style="stroke:#181818;stroke-width:0.5;"/><line style="stroke:#000000;stroke-width:1.5;" x1="500.6938" x2="500.6938" y1="50.042" y2="1973.2529"/><rect fill="#F1F1F1" height="33.9688" rx="12.5" ry="12.5" style="stroke:#181818;stroke-width:0.5;" width="138.2832" x="1047.6167" y="1206.7607"/><text fill="#000000" font-family="sans-serif" font-size="12" lengthAdjust="spacing" textLength="118.2832" x="1057.6167" y="1227.8994">B&#7855;t &#273;&#7847;u transaction</text><rect fill="#F1F1F1" height="33.9688" rx="12.5" ry="12.5" style="stroke:#181818;stroke-width:0.5;" width="228.4063" x="1002.5552" y="1309.1318"/><text fill="#000000" font-family="sans-serif" font-size="12" lengthAdjust="spacing" textLength="208.4063" x="1012.5552" y="1330.2705">X&#243;a related TeacherSalary records</text><polygon fill="#F1F1F1" points="1042.9407,1260.7295,1190.5759,1260.7295,1202.5759,1272.7295,1190.5759,1284.7295,1042.9407,1284.7295,1030.9407,1272.7295,1042.9407,1260.7295" style="stroke:#181818;stroke-width:0.5;"/><text fill="#000000" font-family="sans-serif" font-size="11" lengthAdjust="spacing" textLength="19.2178" x="1120.7583" y="1294.9399">Yes</text><text fill="#000000" font-family="sans-serif" font-size="11" lengthAdjust="spacing" textLength="147.6353" x="1042.9407" y="1276.5376">C&#243; TeacherSalary records?</text><text fill="#000000" font-family="sans-serif" font-size="11" lengthAdjust="spacing" textLength="14.9585" x="1202.5759" y="1270.1353">No</text><polygon fill="#F1F1F1" points="1116.7583,1363.1006,1128.7583,1375.1006,1116.7583,1387.1006,1104.7583,1375.1006,1116.7583,1363.1006" style="stroke:#181818;stroke-width:0.5;"/><rect fill="#F1F1F1" height="33.9688" rx="12.5" ry="12.5" style="stroke:#181818;stroke-width:0.5;" width="152.2285" x="1040.644" y="1407.1006"/><text fill="#000000" font-family="sans-serif" font-size="12" lengthAdjust="spacing" textLength="132.2285" x="1050.644" y="1428.2393">X&#243;a Classroom record</text><rect fill="#F1F1F1" height="33.9688" rx="12.5" ry="12.5" style="stroke:#181818;stroke-width:0.5;" width="142.4668" x="1045.5249" y="1509.4717"/><text fill="#000000" font-family="sans-serif" font-size="12" lengthAdjust="spacing" textLength="122.4668" x="1055.5249" y="1530.6104">Rollback transaction</text><rect fill="#F1F1F1" height="33.9688" rx="12.5" ry="12.5" style="stroke:#181818;stroke-width:0.5;" width="153.3594" x="1040.0786" y="1563.4404"/><text fill="#000000" font-family="sans-serif" font-size="12" lengthAdjust="spacing" textLength="133.3594" x="1050.0786" y="1584.5791">Return database error</text><ellipse cx="1116.7583" cy="1628.4092" fill="none" rx="11" ry="11" style="stroke:#222222;stroke-width:1;"/><ellipse cx="1116.7583" cy="1628.4092" fill="#222222" rx="6" ry="6" style="stroke:#222222;stroke-width:1;"/><polygon fill="#F1F1F1" points="1070.489,1461.0693,1163.0276,1461.0693,1175.0276,1473.0693,1163.0276,1485.0693,1070.489,1485.0693,1058.489,1473.0693,1070.489,1461.0693" style="stroke:#181818;stroke-width:0.5;"/><text fill="#000000" font-family="sans-serif" font-size="11" lengthAdjust="spacing" textLength="14.9585" x="1120.7583" y="1495.2798">No</text><text fill="#000000" font-family="sans-serif" font-size="11" lengthAdjust="spacing" textLength="92.5386" x="1070.489" y="1476.8774">X&#243;a th&#224;nh c&#244;ng?</text><text fill="#000000" font-family="sans-serif" font-size="11" lengthAdjust="spacing" textLength="19.2178" x="1175.0276" y="1470.4751">Yes</text><rect fill="#F1F1F1" height="33.9688" rx="12.5" ry="12.5" style="stroke:#181818;stroke-width:0.5;" width="138.7402" x="1047.3882" y="1681.4092"/><text fill="#000000" font-family="sans-serif" font-size="12" lengthAdjust="spacing" textLength="118.7402" x="1057.3882" y="1702.5479">Commit transaction</text><line style="stroke:#000000;stroke-width:1.5;" x1="996.5552" x2="996.5552" y1="50.042" y2="1973.2529"/><rect fill="#F1F1F1" height="33.9688" rx="12.5" ry="12.5" style="stroke:#181818;stroke-width:0.5;" width="169.9063" x="1274.7681" y="1735.3779"/><text fill="#000000" font-family="sans-serif" font-size="12" lengthAdjust="spacing" textLength="149.9063" x="1284.7681" y="1756.5166">Return success response</text><rect fill="#F1F1F1" height="33.9688" rx="12.5" ry="12.5" style="stroke:#181818;stroke-width:0.5;" width="175.3027" x="1272.0698" y="1789.3467"/><text fill="#000000" font-family="sans-serif" font-size="12" lengthAdjust="spacing" textLength="155.3027" x="1282.0698" y="1810.4854">Hi&#7875;n th&#7883; success message</text><rect fill="#F1F1F1" height="33.9688" rx="12.5" ry="12.5" style="stroke:#181818;stroke-width:0.5;" width="187.5195" x="1265.9614" y="1843.3154"/><text fill="#000000" font-family="sans-serif" font-size="12" lengthAdjust="spacing" textLength="167.5195" x="1275.9614" y="1864.4541">C&#7853;p nh&#7853;t danh s&#225;ch l&#7899;p h&#7885;c</text><rect fill="#F1F1F1" height="33.9688" rx="12.5" ry="12.5" style="stroke:#181818;stroke-width:0.5;" width="141.8164" x="1288.813" y="1897.2842"/><text fill="#000000" font-family="sans-serif" font-size="12" lengthAdjust="spacing" textLength="121.8164" x="1298.813" y="1918.4229">&#272;&#243;ng confirm dialog</text><ellipse cx="1359.7212" cy="1962.2529" fill="none" rx="11" ry="11" style="stroke:#222222;stroke-width:1;"/><ellipse cx="1359.7212" cy="1962.2529" fill="#222222" rx="6" ry="6" style="stroke:#222222;stroke-width:1;"/><line style="stroke:#000000;stroke-width:1.5;" x1="1259.9614" x2="1259.9614" y1="50.042" y2="1973.2529"/><line style="stroke:#000000;stroke-width:1.5;" x1="1457.481" x2="1457.481" y1="50.042" y2="1973.2529"/><line style="stroke:#181818;stroke-width:1;" x1="128.6934" x2="128.6934" y1="95.9951" y2="115.9951"/><polygon fill="#181818" points="124.6934,105.9951,128.6934,115.9951,132.6934,105.9951,128.6934,109.9951" style="stroke:#181818;stroke-width:1;"/><line style="stroke:#181818;stroke-width:1;" x1="128.6934" x2="128.6934" y1="149.9639" y2="169.9639"/><polygon fill="#181818" points="124.6934,159.9639,128.6934,169.9639,132.6934,159.9639,128.6934,163.9639" style="stroke:#181818;stroke-width:1;"/><line style="stroke:#181818;stroke-width:1;" x1="128.6934" x2="128.6934" y1="306.3037" y2="335.2881"/><polygon fill="#181818" points="124.6934,325.2881,128.6934,335.2881,132.6934,325.2881,128.6934,329.2881" style="stroke:#181818;stroke-width:1;"/><line style="stroke:#181818;stroke-width:1;" x1="128.6934" x2="128.6934" y1="247.9326" y2="272.335"/><polygon fill="#181818" points="124.6934,262.335,128.6934,272.335,132.6934,262.335,128.6934,266.335" style="stroke:#181818;stroke-width:1;"/><line style="stroke:#181818;stroke-width:1;" x1="194.8608" x2="349.2607" y1="235.9326" y2="235.9326"/><polygon fill="#181818" points="345.2607,316.3037,349.2607,326.3037,353.2607,316.3037,349.2607,320.3037" style="stroke:#181818;stroke-width:1;"/><line style="stroke:#181818;stroke-width:1;" x1="349.2607" x2="349.2607" y1="235.9326" y2="399.2881"/><polygon fill="#181818" points="345.2607,389.2881,349.2607,399.2881,353.2607,389.2881,349.2607,393.2881" style="stroke:#181818;stroke-width:1;"/><line style="stroke:#181818;stroke-width:1;" x1="128.6934" x2="128.6934" y1="203.9326" y2="223.9326"/><polygon fill="#181818" points="124.6934,213.9326,128.6934,223.9326,132.6934,213.9326,128.6934,217.9326" style="stroke:#181818;stroke-width:1;"/><line style="stroke:#181818;stroke-width:1;" x1="349.2607" x2="349.2607" y1="637.999" y2="660.5146"/><polygon fill="#181818" points="345.2607,650.5146,349.2607,660.5146,353.2607,650.5146,349.2607,654.5146" style="stroke:#181818;stroke-width:1;"/><line style="stroke:#181818;stroke-width:1;" x1="349.2607" x2="349.2607" y1="694.4834" y2="714.4834"/><polygon fill="#181818" points="345.2607,704.4834,349.2607,714.4834,353.2607,704.4834,349.2607,708.4834" style="stroke:#181818;stroke-width:1;"/><line style="stroke:#181818;stroke-width:1;" x1="349.2607" x2="349.2607" y1="579.6279" y2="604.0303"/><polygon fill="#181818" points="345.2607,594.0303,349.2607,604.0303,353.2607,594.0303,349.2607,598.0303" style="stroke:#181818;stroke-width:1;"/><line style="stroke:#181818;stroke-width:1;" x1="430.615" x2="442.615" y1="567.6279" y2="567.6279"/><polygon fill="#181818" points="438.615,658.5146,442.615,668.5146,446.615,658.5146,442.615,662.5146" style="stroke:#181818;stroke-width:1;"/><line style="stroke:#181818;stroke-width:1;" x1="442.615" x2="442.615" y1="567.6279" y2="758.4834"/><line style="stroke:#181818;stroke-width:1;" x1="442.615" x2="349.2607" y1="758.4834" y2="758.4834"/><line style="stroke:#181818;stroke-width:1;" x1="349.2607" x2="349.2607" y1="758.4834" y2="778.4834"/><polygon fill="#181818" points="345.2607,768.4834,349.2607,778.4834,353.2607,768.4834,349.2607,772.4834" style="stroke:#181818;stroke-width:1;"/><line style="stroke:#181818;stroke-width:1;" x1="349.2607" x2="349.2607" y1="535.6279" y2="555.6279"/><polygon fill="#181818" points="345.2607,545.6279,349.2607,555.6279,353.2607,545.6279,349.2607,549.6279" style="stroke:#181818;stroke-width:1;"/><line style="stroke:#181818;stroke-width:1;" x1="349.2607" x2="349.2607" y1="477.2568" y2="501.6592"/><polygon fill="#181818" points="345.2607,491.6592,349.2607,501.6592,353.2607,491.6592,349.2607,495.6592" style="stroke:#181818;stroke-width:1;"/><line style="stroke:#181818;stroke-width:1;" x1="434.5225" x2="462.9941" y1="465.2568" y2="465.2568"/><polygon fill="#181818" points="458.9941,630.5146,462.9941,640.5146,466.9941,630.5146,462.9941,634.5146" style="stroke:#181818;stroke-width:1;"/><line style="stroke:#181818;stroke-width:1;" x1="462.9941" x2="462.9941" y1="465.2568" y2="790.4834"/><line style="stroke:#181818;stroke-width:1;" x1="462.9941" x2="361.2607" y1="790.4834" y2="790.4834"/><polygon fill="#181818" points="371.2607,786.4834,361.2607,790.4834,371.2607,794.4834,367.2607,790.4834" style="stroke:#181818;stroke-width:1;"/><line style="stroke:#181818;stroke-width:1;" x1="349.2607" x2="349.2607" y1="433.2568" y2="453.2568"/><polygon fill="#181818" points="345.2607,443.2568,349.2607,453.2568,353.2607,443.2568,349.2607,447.2568" style="stroke:#181818;stroke-width:1;"/><line style="stroke:#181818;stroke-width:1;" x1="594.0347" x2="594.0347" y1="1046.792" y2="1066.792"/><polygon fill="#181818" points="590.0347,1056.792,594.0347,1066.792,598.0347,1056.792,594.0347,1060.792" style="stroke:#181818;stroke-width:1;"/><line style="stroke:#181818;stroke-width:1;" x1="594.0347" x2="594.0347" y1="1100.7607" y2="1120.7607"/><polygon fill="#181818" points="590.0347,1110.7607,594.0347,1120.7607,598.0347,1110.7607,594.0347,1114.7607" style="stroke:#181818;stroke-width:1;"/><line style="stroke:#181818;stroke-width:1;" x1="621.5833" x2="594.0347" y1="990.8232" y2="990.8232"/><line style="stroke:#181818;stroke-width:1;" x1="594.0347" x2="594.0347" y1="990.8232" y2="1012.8232"/><polygon fill="#181818" points="590.0347,1002.8232,594.0347,1012.8232,598.0347,1002.8232,594.0347,1006.8232" style="stroke:#181818;stroke-width:1;"/><line style="stroke:#181818;stroke-width:1;" x1="804.9167" x2="832.4653" y1="990.8232" y2="990.8232"/><line style="stroke:#181818;stroke-width:1;" x1="832.4653" x2="832.4653" y1="990.8232" y2="1012.8232"/><polygon fill="#181818" points="828.4653,1002.8232,832.4653,1012.8232,836.4653,1002.8232,832.4653,1006.8232" style="stroke:#181818;stroke-width:1;"/><line style="stroke:#181818;stroke-width:1;" x1="832.4653" x2="832.4653" y1="1046.792" y2="1147.7607"/><line style="stroke:#181818;stroke-width:1;" x1="832.4653" x2="713.25" y1="1147.7607" y2="1147.7607"/><line style="stroke:#181818;stroke-width:1;" x1="713.25" x2="713.25" y1="1147.7607" y2="1162.7607"/><polygon fill="#181818" points="709.25,1152.7607,713.25,1162.7607,717.25,1152.7607,713.25,1156.7607" style="stroke:#181818;stroke-width:1;"/><line style="stroke:#181818;stroke-width:1;" x1="713.25" x2="713.25" y1="958.8232" y2="978.8232"/><polygon fill="#181818" points="709.25,968.8232,713.25,978.8232,717.25,968.8232,713.25,972.8232" style="stroke:#181818;stroke-width:1;"/><line style="stroke:#181818;stroke-width:1;" x1="713.25" x2="713.25" y1="900.4521" y2="924.8545"/><polygon fill="#181818" points="709.25,914.8545,713.25,924.8545,717.25,914.8545,713.25,918.8545" style="stroke:#181818;stroke-width:1;"/><line style="stroke:#181818;stroke-width:1;" x1="772.0134" x2="977.5552" y1="888.4521" y2="888.4521"/><polygon fill="#181818" points="973.5552,1034.3076,977.5552,1044.3076,981.5552,1034.3076,977.5552,1038.3076" style="stroke:#181818;stroke-width:1;"/><line style="stroke:#181818;stroke-width:1;" x1="977.5552" x2="977.5552" y1="888.4521" y2="1174.7607"/><line style="stroke:#181818;stroke-width:1;" x1="977.5552" x2="725.25" y1="1174.7607" y2="1174.7607"/><polygon fill="#181818" points="735.25,1170.7607,725.25,1174.7607,735.25,1178.7607,731.25,1174.7607" style="stroke:#181818;stroke-width:1;"/><line style="stroke:#181818;stroke-width:1;" x1="713.25" x2="713.25" y1="856.4521" y2="876.4521"/><polygon fill="#181818" points="709.25,866.4521,713.25,876.4521,717.25,866.4521,713.25,870.4521" style="stroke:#181818;stroke-width:1;"/><line style="stroke:#181818;stroke-width:1;" x1="1116.7583" x2="1116.7583" y1="1284.7295" y2="1309.1318"/><polygon fill="#181818" points="1112.7583,1299.1318,1116.7583,1309.1318,1120.7583,1299.1318,1116.7583,1303.1318" style="stroke:#181818;stroke-width:1;"/><line style="stroke:#181818;stroke-width:1;" x1="1202.5759" x2="1240.9614" y1="1272.7295" y2="1272.7295"/><polygon fill="#181818" points="1236.9614,1316.1162,1240.9614,1326.1162,1244.9614,1316.1162,1240.9614,1320.1162" style="stroke:#181818;stroke-width:1;"/><line style="stroke:#181818;stroke-width:1;" x1="1240.9614" x2="1240.9614" y1="1272.7295" y2="1375.1006"/><line style="stroke:#181818;stroke-width:1;" x1="1240.9614" x2="1128.7583" y1="1375.1006" y2="1375.1006"/><polygon fill="#181818" points="1138.7583,1371.1006,1128.7583,1375.1006,1138.7583,1379.1006,1134.7583,1375.1006" style="stroke:#181818;stroke-width:1;"/><line style="stroke:#181818;stroke-width:1;" x1="1116.7583" x2="1116.7583" y1="1343.1006" y2="1363.1006"/><polygon fill="#181818" points="1112.7583,1353.1006,1116.7583,1363.1006,1120.7583,1353.1006,1116.7583,1357.1006" style="stroke:#181818;stroke-width:1;"/><line style="stroke:#181818;stroke-width:1;" x1="1116.7583" x2="1116.7583" y1="1240.7295" y2="1260.7295"/><polygon fill="#181818" points="1112.7583,1250.7295,1116.7583,1260.7295,1120.7583,1250.7295,1116.7583,1254.7295" style="stroke:#181818;stroke-width:1;"/><line style="stroke:#181818;stroke-width:1;" x1="1116.7583" x2="1116.7583" y1="1387.1006" y2="1407.1006"/><polygon fill="#181818" points="1112.7583,1397.1006,1116.7583,1407.1006,1120.7583,1397.1006,1116.7583,1401.1006" style="stroke:#181818;stroke-width:1;"/><line style="stroke:#181818;stroke-width:1;" x1="1116.7583" x2="1116.7583" y1="1543.4404" y2="1563.4404"/><polygon fill="#181818" points="1112.7583,1553.4404,1116.7583,1563.4404,1120.7583,1553.4404,1116.7583,1557.4404" style="stroke:#181818;stroke-width:1;"/><line style="stroke:#181818;stroke-width:1;" x1="1116.7583" x2="1116.7583" y1="1597.4092" y2="1617.4092"/><polygon fill="#181818" points="1112.7583,1607.4092,1116.7583,1617.4092,1120.7583,1607.4092,1116.7583,1611.4092" style="stroke:#181818;stroke-width:1;"/><line style="stroke:#181818;stroke-width:1;" x1="1116.7583" x2="1116.7583" y1="1485.0693" y2="1509.4717"/><polygon fill="#181818" points="1112.7583,1499.4717,1116.7583,1509.4717,1120.7583,1499.4717,1116.7583,1503.4717" style="stroke:#181818;stroke-width:1;"/><line style="stroke:#181818;stroke-width:1;" x1="1175.0276" x2="1203.438" y1="1473.0693" y2="1473.0693"/><polygon fill="#181818" points="1199.438,1561.4404,1203.438,1571.4404,1207.438,1561.4404,1203.438,1565.4404" style="stroke:#181818;stroke-width:1;"/><line style="stroke:#181818;stroke-width:1;" x1="1203.438" x2="1203.438" y1="1473.0693" y2="1661.4092"/><line style="stroke:#181818;stroke-width:1;" x1="1203.438" x2="1116.7583" y1="1661.4092" y2="1661.4092"/><line style="stroke:#181818;stroke-width:1;" x1="1116.7583" x2="1116.7583" y1="1661.4092" y2="1681.4092"/><polygon fill="#181818" points="1112.7583,1671.4092,1116.7583,1681.4092,1120.7583,1671.4092,1116.7583,1675.4092" style="stroke:#181818;stroke-width:1;"/><line style="stroke:#181818;stroke-width:1;" x1="1116.7583" x2="1116.7583" y1="1441.0693" y2="1461.0693"/><polygon fill="#181818" points="1112.7583,1451.0693,1116.7583,1461.0693,1120.7583,1451.0693,1116.7583,1455.0693" style="stroke:#181818;stroke-width:1;"/><line style="stroke:#181818;stroke-width:1;" x1="1359.7212" x2="1359.7212" y1="1769.3467" y2="1789.3467"/><polygon fill="#181818" points="1355.7212,1779.3467,1359.7212,1789.3467,1363.7212,1779.3467,1359.7212,1783.3467" style="stroke:#181818;stroke-width:1;"/><line style="stroke:#181818;stroke-width:1;" x1="1359.7212" x2="1359.7212" y1="1823.3154" y2="1843.3154"/><polygon fill="#181818" points="1355.7212,1833.3154,1359.7212,1843.3154,1363.7212,1833.3154,1359.7212,1837.3154" style="stroke:#181818;stroke-width:1;"/><line style="stroke:#181818;stroke-width:1;" x1="1359.7212" x2="1359.7212" y1="1877.2842" y2="1897.2842"/><polygon fill="#181818" points="1355.7212,1887.2842,1359.7212,1897.2842,1363.7212,1887.2842,1359.7212,1891.2842" style="stroke:#181818;stroke-width:1;"/><line style="stroke:#181818;stroke-width:1;" x1="1359.7212" x2="1359.7212" y1="1931.2529" y2="1951.2529"/><polygon fill="#181818" points="1355.7212,1941.2529,1359.7212,1951.2529,1363.7212,1941.2529,1359.7212,1945.2529" style="stroke:#181818;stroke-width:1;"/><line style="stroke:#181818;stroke-width:1;" x1="349.2607" x2="349.2607" y1="802.4834" y2="807.4834"/><line style="stroke:#181818;stroke-width:1;" x1="349.2607" x2="713.25" y1="807.4834" y2="807.4834"/><line style="stroke:#181818;stroke-width:1;" x1="713.25" x2="713.25" y1="807.4834" y2="822.4834"/><polygon fill="#181818" points="709.25,812.4834,713.25,822.4834,717.25,812.4834,713.25,816.4834" style="stroke:#181818;stroke-width:1;"/><line style="stroke:#181818;stroke-width:1;" x1="713.25" x2="713.25" y1="1186.7607" y2="1191.7607"/><line style="stroke:#181818;stroke-width:1;" x1="713.25" x2="1116.7583" y1="1191.7607" y2="1191.7607"/><line style="stroke:#181818;stroke-width:1;" x1="1116.7583" x2="1116.7583" y1="1191.7607" y2="1206.7607"/><polygon fill="#181818" points="1112.7583,1196.7607,1116.7583,1206.7607,1120.7583,1196.7607,1116.7583,1200.7607" style="stroke:#181818;stroke-width:1;"/><line style="stroke:#181818;stroke-width:1;" x1="1116.7583" x2="1116.7583" y1="1715.3779" y2="1720.3779"/><line style="stroke:#181818;stroke-width:1;" x1="1116.7583" x2="1359.7212" y1="1720.3779" y2="1720.3779"/><line style="stroke:#181818;stroke-width:1;" x1="1359.7212" x2="1359.7212" y1="1720.3779" y2="1735.3779"/><polygon fill="#181818" points="1355.7212,1725.3779,1359.7212,1735.3779,1363.7212,1725.3779,1359.7212,1729.3779" style="stroke:#181818;stroke-width:1;"/><text fill="#000000" font-family="sans-serif" font-size="18" lengthAdjust="spacing" textLength="127.3359" x="64.0254" y="66.75">User Interface</text><text fill="#000000" font-family="sans-serif" font-size="18" lengthAdjust="spacing" textLength="120.5596" x="310.2605" y="66.75">Authorization</text><text fill="#000000" font-family="sans-serif" font-size="18" lengthAdjust="spacing" textLength="195.5566" x="650.8462" y="66.75">Business Rules Check</text><text fill="#000000" font-family="sans-serif" font-size="18" lengthAdjust="spacing" textLength="190.5645" x="1032.9761" y="66.75">Database Operations</text><text fill="#000000" font-family="sans-serif" font-size="18" lengthAdjust="spacing" textLength="87.2578" x="1315.0923" y="66.75">Response</text><!--SRC=[TPJDQXH14CVlynH5Jhi7Ns0NaMHoY1WKDWfwxFJKR3UPwHwxUuAHlOX74VGauYMBXw0W2hiWpE9fGjvZtiJgdftzo2QNOQZg-lZ_ghkST1d2FdVoNBeBE9HiR5WE3-1bFMDmt2o-5N3KB3xoA9gyi6ZWiN9eKiPn4bd7Z8i6mSmpoSz0rPM3FH-w1yxKFnLa8OFm6OO0qU18Delt2XnPFW3NAfKcXqIoJ8-7KIHJw8LqR-ef1oMQwfUY_nbxrASGLD1xgliHmE3wKprJurKWW7MwY32p2BrNQFiHgaIcrFD-wOGsyYrpKgj9D7ZYw-VK78FNvKMpUAUWf8ARjRFw4Wwn86qvAWT7o99L-P2RwXzhbf1cPgtHEeTpKYb9Jcce0QbIxLlo2UFMv4JPBBvoE1EQqOV4tSv8EKVeIgEWG9DBQwbTG6Eq6RRUBN1Er7EIVrfFjIVyHRQ70WI05aDBgkNGMMYk-qakrPhFGMcbGcjXL6Pe8HR8pxOnhLNoUaOMJOMV8-C2pGdBcBbOiel9Qv1haq1sy-TcgiOxr3QoEjDKTCGhcKfe4yN-EemxT2UEkTB2Gs3-SY88tLH_ERMZBIRtupEOea75yNvwWPWVmpmqG9vmn-vaICGImrAtB18B3OMeVnGX0dgsgVwrlxofleCDEfOOR7-uCu0r-4Fcs2aZwpCQUBYTbhWVDDLl1zUVc-ggz9oKzUgrsc2ynRuhjOCwF5-36NEOt1qot6sgZOfN0szFBci77uthKWcw2VEDyIxVv4XdsIcZBR3LzteoIQTuDPXx7kqWrdaktItzan7QWYZHukaosf9pVtVDqZEyjLywVquVDlRkc3PAqIuMHmsH54kFKMojgQZRBZlhoVVx7m00]--></g></svg>